<svg width="469" height="397" viewBox="0 0 469 397" fill="none" xmlns="http://www.w3.org/2000/svg">
<path opacity="0.18" d="M157.329 11.4163C131.428 25.3072 112.578 50.7164 104.174 78.8577C99.2098 95.5095 97.6557 113.096 92.0006 129.518C75.87 176.267 29.4062 206.68 9.59181 251.991C-1.44496 277.213 -3.35876 306.634 5.95126 332.518C15.2613 358.401 36.0398 380.388 61.9409 389.491C77.8557 395.099 95.0368 395.933 111.858 396.465C143.515 397.471 175.302 397.586 206.397 391.978C221.219 389.318 235.81 385.349 250.76 383.624C279.683 380.273 309.21 385.364 337.961 380.748C357.977 377.498 376.942 369.618 395.073 360.53C408.671 353.714 422.053 346.15 433.277 335.796C462.963 308.59 473.956 264.458 465.984 225C458.013 185.542 432.888 150.872 401.39 125.779C387.504 114.778 372.395 105.46 357.847 95.3657C339.118 82.3555 321.327 68.0458 304.606 52.5426C264.617 15.5146 213.031 -18.4218 157.329 11.4163Z" fill="#68E1FD"/>
<g clip-path="url(#clip0)">
<path d="M424.612 333.274H104.193C102.005 333.271 99.9084 332.401 98.3618 330.855C96.8151 329.308 95.9451 327.211 95.9427 325.024V127.447C95.9444 125.845 96.5818 124.308 97.7148 123.175C98.8479 122.042 100.384 121.405 101.987 121.403H426.713C428.344 121.405 429.906 122.053 431.059 123.206C432.212 124.358 432.86 125.921 432.862 127.552V325.024C432.859 327.211 431.989 329.308 430.443 330.855C428.896 332.401 426.799 333.271 424.612 333.274Z" fill="#F2F2F2"/>
<path d="M414.252 322.858H115.63C111.252 322.858 107.691 319.523 107.691 315.424V143.371C107.691 140.331 110.33 137.858 113.574 137.858H416.21C419.508 137.858 422.191 140.372 422.191 143.462V315.424C422.191 319.523 418.629 322.858 414.252 322.858Z" fill="white"/>
<path d="M432.747 128.475H95.8269V124.275C95.83 122.08 96.7036 119.977 98.2559 118.425C99.8081 116.874 101.912 116.002 104.107 116H424.467C426.662 116.002 428.766 116.874 430.318 118.425C431.87 119.977 432.744 122.08 432.747 124.275V128.475Z" fill="#50ACC1"/>
<path d="M110.875 124.392C112.057 124.392 113.016 123.433 113.016 122.25C113.016 121.067 112.057 120.108 110.875 120.108C109.692 120.108 108.733 121.067 108.733 122.25C108.733 123.433 109.692 124.392 110.875 124.392Z" fill="white"/>
<path d="M119.004 124.392C120.187 124.392 121.146 123.433 121.146 122.25C121.146 121.067 120.187 120.108 119.004 120.108C117.821 120.108 116.862 121.067 116.862 122.25C116.862 123.433 117.821 124.392 119.004 124.392Z" fill="white"/>
<path d="M127.133 124.392C128.316 124.392 129.275 123.433 129.275 122.25C129.275 121.067 128.316 120.108 127.133 120.108C125.951 120.108 124.992 121.067 124.992 122.25C124.992 123.433 125.951 124.392 127.133 124.392Z" fill="white"/>
<path d="M349.162 184.191H207.676C202.011 184.191 197.419 188.783 197.419 194.448V194.448C197.419 200.112 202.011 204.705 207.676 204.705H349.162C354.827 204.705 359.419 200.112 359.419 194.448C359.419 188.783 354.827 184.191 349.162 184.191Z" fill="#E6E6E6"/>
<path d="M349.162 218.135H207.676C202.011 218.135 197.419 222.727 197.419 228.392V228.392C197.419 234.057 202.011 238.649 207.676 238.649H349.162C354.827 238.649 359.419 234.057 359.419 228.392C359.419 222.727 354.827 218.135 349.162 218.135Z" fill="#E6E6E6"/>
<path d="M349.162 252.08H207.676C202.011 252.08 197.419 256.672 197.419 262.336V262.336C197.419 268.001 202.011 272.593 207.676 272.593H349.162C354.827 272.593 359.419 268.001 359.419 262.336C359.419 256.672 354.827 252.08 349.162 252.08Z" fill="#E6E6E6"/>
<path d="M179.419 238.892C185.218 238.892 189.919 234.191 189.919 228.392C189.919 222.593 185.218 217.892 179.419 217.892C173.62 217.892 168.919 222.593 168.919 228.392C168.919 234.191 173.62 238.892 179.419 238.892Z" fill="#E6E6E6"/>
<path d="M183.168 227.669L179.98 224.24C179.908 224.163 179.822 224.101 179.725 224.059C179.629 224.017 179.525 223.996 179.42 223.996C179.314 223.996 179.21 224.017 179.114 224.059C179.018 224.101 178.931 224.163 178.859 224.24L175.67 227.669C175.626 227.717 175.591 227.774 175.568 227.835C175.545 227.897 175.535 227.962 175.537 228.028C175.539 228.094 175.555 228.158 175.582 228.218C175.609 228.278 175.648 228.331 175.696 228.376C175.744 228.421 175.801 228.456 175.862 228.479C175.924 228.502 175.989 228.512 176.055 228.51C176.121 228.507 176.185 228.492 176.245 228.465C176.305 228.437 176.359 228.398 176.403 228.35L178.919 225.644V232.289C178.919 232.421 178.971 232.548 179.065 232.642C179.159 232.736 179.286 232.789 179.419 232.789C179.551 232.789 179.679 232.736 179.772 232.642C179.866 232.548 179.919 232.421 179.919 232.289V225.642L182.435 228.35C182.526 228.447 182.651 228.504 182.783 228.509C182.916 228.513 183.044 228.465 183.141 228.375C183.239 228.285 183.296 228.16 183.301 228.028C183.306 227.895 183.258 227.766 183.168 227.669V227.669Z" fill="white"/>
<path d="M179.419 272.836C185.218 272.836 189.919 268.135 189.919 262.336C189.919 256.537 185.218 251.836 179.419 251.836C173.62 251.836 168.919 256.537 168.919 262.336C168.919 268.135 173.62 272.836 179.419 272.836Z" fill="#E6E6E6"/>
<path d="M183.168 261.613L179.98 258.184C179.908 258.107 179.822 258.046 179.725 258.004C179.629 257.962 179.525 257.94 179.42 257.94C179.314 257.94 179.21 257.962 179.114 258.004C179.018 258.046 178.931 258.107 178.859 258.184L175.67 261.613C175.626 261.661 175.591 261.718 175.568 261.78C175.545 261.841 175.534 261.907 175.536 261.972C175.539 262.038 175.554 262.103 175.581 262.163C175.609 262.223 175.647 262.276 175.696 262.321C175.744 262.366 175.8 262.401 175.862 262.424C175.924 262.447 175.989 262.457 176.055 262.455C176.121 262.452 176.185 262.437 176.245 262.409C176.305 262.382 176.359 262.343 176.403 262.295L178.919 259.589V266.233C178.919 266.366 178.971 266.493 179.065 266.586C179.159 266.68 179.286 266.733 179.419 266.733C179.551 266.733 179.679 266.68 179.772 266.586C179.866 266.493 179.919 266.366 179.919 266.233V259.587L182.435 262.295C182.526 262.391 182.651 262.448 182.783 262.453C182.916 262.458 183.044 262.41 183.141 262.32C183.239 262.229 183.296 262.104 183.301 261.972C183.306 261.84 183.258 261.711 183.168 261.613V261.613Z" fill="white"/>
<path d="M179.419 204.948C185.218 204.948 189.919 200.247 189.919 194.448C189.919 188.649 185.218 183.948 179.419 183.948C173.62 183.948 168.919 188.649 168.919 194.448C168.919 200.247 173.62 204.948 179.419 204.948Z" fill="#68E1FD"/>
<path d="M183.168 193.725L179.98 190.295C179.908 190.218 179.822 190.157 179.725 190.115C179.629 190.073 179.525 190.051 179.42 190.051C179.314 190.051 179.21 190.073 179.114 190.115C179.018 190.157 178.931 190.218 178.859 190.295L175.67 193.725C175.626 193.773 175.591 193.829 175.568 193.891C175.545 193.952 175.534 194.018 175.536 194.084C175.539 194.149 175.554 194.214 175.581 194.274C175.609 194.334 175.647 194.388 175.696 194.432C175.744 194.477 175.8 194.512 175.862 194.535C175.924 194.558 175.989 194.568 176.055 194.566C176.121 194.564 176.185 194.548 176.245 194.521C176.305 194.493 176.359 194.454 176.403 194.406L178.919 191.7V198.344C178.919 198.477 178.971 198.604 179.065 198.698C179.159 198.791 179.286 198.844 179.419 198.844C179.551 198.844 179.679 198.791 179.772 198.698C179.866 198.604 179.919 198.477 179.919 198.344V191.698L182.435 194.406C182.526 194.503 182.651 194.56 182.783 194.564C182.916 194.569 183.044 194.521 183.141 194.431C183.239 194.341 183.296 194.216 183.301 194.083C183.306 193.951 183.258 193.822 183.168 193.725V193.725Z" fill="white"/>
<path d="M169.573 194.167C168.842 194.097 168.103 194.188 167.411 194.433C166.718 194.679 166.088 195.074 165.564 195.59C165.04 196.105 164.636 196.73 164.38 197.419C164.123 198.107 164.021 198.844 164.08 199.577L147.727 206.774L155.527 211.81L169.861 204.203C171.085 204.022 172.201 203.398 172.996 202.45C173.791 201.501 174.21 200.294 174.175 199.057C174.139 197.82 173.651 196.639 172.803 195.738C171.955 194.837 170.806 194.278 169.573 194.167V194.167Z" fill="#A0616A"/>
<path d="M103.608 185.189C110.39 185.189 115.888 179.691 115.888 172.908C115.888 166.126 110.39 160.628 103.608 160.628C96.8252 160.628 91.3271 166.126 91.3271 172.908C91.3271 179.691 96.8252 185.189 103.608 185.189Z" fill="#A0616A"/>
<path d="M125.834 348.016L131.964 348.015L134.88 324.371L125.833 324.372L125.834 348.016Z" fill="#A0616A"/>
<path d="M124.27 346.014L136.342 346.013H136.342C137.353 346.013 138.353 346.212 139.286 346.599C140.22 346.986 141.068 347.552 141.782 348.267C142.497 348.981 143.063 349.829 143.45 350.763C143.837 351.696 144.036 352.696 144.036 353.707V353.957L124.27 353.957L124.27 346.014Z" fill="#2F2E41"/>
<path d="M100.334 348.016L106.464 348.015L109.38 324.371L100.333 324.372L100.334 348.016Z" fill="#A0616A"/>
<path d="M98.7699 346.014L110.842 346.013H110.842C111.853 346.013 112.853 346.212 113.786 346.599C114.72 346.986 115.568 347.552 116.282 348.267C116.997 348.981 117.563 349.829 117.95 350.763C118.337 351.696 118.536 352.696 118.536 353.707V353.957L98.7703 353.957L98.7699 346.014Z" fill="#2F2E41"/>
<path d="M99.136 342.417C98.8974 342.207 98.7062 341.948 98.5748 341.659C98.4434 341.369 98.3749 341.055 98.3737 340.737L98.0853 252.136L130.096 250.902L130.332 250.894L135.596 304.04L136.256 337.896C136.268 338.456 136.071 338.999 135.704 339.421C135.336 339.842 134.825 340.111 134.269 340.175L126.499 341.089C126.191 341.126 125.878 341.098 125.581 341.008C125.284 340.918 125.009 340.767 124.773 340.565C124.537 340.363 124.346 340.115 124.211 339.836C124.075 339.556 123.999 339.252 123.988 338.942L122.604 302.974L115.887 280.582C115.816 280.43 115.697 280.306 115.548 280.23C115.399 280.154 115.229 280.13 115.065 280.162C114.9 280.194 114.751 280.28 114.642 280.406C114.532 280.532 114.467 280.691 114.458 280.858L111.844 339.74C111.817 340.269 111.605 340.771 111.244 341.159C110.883 341.546 110.397 341.794 109.871 341.858L100.899 342.962C100.583 343.002 100.262 342.973 99.9586 342.879C99.6547 342.785 99.3743 342.628 99.1359 342.417L99.136 342.417Z" fill="#2F2E41"/>
<path d="M97.1134 255.281L87.6294 216.766C84.6742 204.765 91.4249 192.682 102.678 189.83C105.318 189.156 108.072 189.055 110.755 189.533C113.438 190.011 115.987 191.058 118.232 192.604C120.784 194.369 122.935 196.652 124.544 199.305C126.153 201.958 127.185 204.921 127.572 208L133.767 253.595C133.81 253.908 133.786 254.227 133.697 254.53C133.608 254.834 133.456 255.115 133.252 255.356C133.047 255.597 132.794 255.792 132.509 255.928C132.223 256.064 131.913 256.139 131.597 256.147L99.3571 256.992C99.3375 256.993 99.318 256.993 99.2984 256.993C98.7958 256.99 98.3083 256.821 97.9126 256.511C97.517 256.201 97.2358 255.768 97.1134 255.281V255.281Z" fill="#68E1FD"/>
<path d="M136.844 219.699L112.8 208.02C111.794 207.532 110.901 206.84 110.177 205.988C109.452 205.137 108.913 204.145 108.592 203.074C108.271 202.003 108.175 200.877 108.312 199.768C108.449 198.658 108.814 197.589 109.385 196.628C109.956 195.667 110.72 194.835 111.629 194.185C112.539 193.535 113.573 193.08 114.667 192.85C115.761 192.62 116.89 192.619 117.984 192.849C119.079 193.078 120.113 193.531 121.023 194.181L140.477 208.074L161.478 199.711C161.896 199.544 162.355 199.506 162.795 199.603C163.235 199.7 163.635 199.927 163.944 200.255L166.776 203.245C167.003 203.484 167.174 203.77 167.278 204.082C167.382 204.394 167.416 204.726 167.378 205.053C167.339 205.379 167.23 205.694 167.057 205.974C166.884 206.254 166.652 206.493 166.377 206.673L147.576 219.008C145.998 220.038 144.181 220.642 142.3 220.763C140.42 220.884 138.541 220.517 136.844 219.699V219.699Z" fill="#68E1FD"/>
<path d="M98.8582 184.418C97.8941 184.437 96.938 184.239 96.0602 183.84C95.6686 183.668 95.2621 183.526 94.8712 183.354C91.419 181.831 89.1449 177.634 89.0635 173.411C89.0534 171.352 89.4632 169.312 90.2679 167.416C91.0725 165.521 92.2551 163.809 93.7433 162.386C96.5526 159.801 100.156 158.246 103.964 157.976C107.939 157.631 112.415 158.782 114.636 162.56C114.974 163.059 115.206 163.622 115.319 164.213C115.431 164.805 115.422 165.413 115.291 166.001C115.191 166.359 115.004 166.686 114.747 166.954C113.755 167.962 112.766 167.204 111.755 167.137C110.365 167.045 109.117 168.33 108.668 169.834C108.219 171.339 108.417 172.995 108.779 174.529L108.786 174.558C108.868 174.916 108.872 175.288 108.799 175.648C108.725 176.008 108.575 176.348 108.359 176.645C108.143 176.943 107.866 177.19 107.546 177.372C107.227 177.553 106.872 177.664 106.506 177.696C104.977 177.834 103.298 177.92 102.819 177.695C101.88 177.255 100.619 177.353 100.072 178.329C99.8971 178.69 99.7799 179.076 99.7252 179.473C99.2354 182.021 99.348 181.871 98.8582 184.418L98.8582 184.418Z" fill="#2F2E41"/>
<path d="M95.3851 275.719C95.8239 275.129 96.1281 274.451 96.2763 273.731C96.4245 273.011 96.413 272.267 96.2427 271.552C96.0723 270.837 95.7473 270.168 95.2904 269.592C94.8335 269.016 94.256 268.548 93.5984 268.219L95.9016 250.501L87.5562 254.571L86.6485 270.772C86.1699 271.913 86.1266 273.191 86.5267 274.362C86.9269 275.533 87.7427 276.516 88.8196 277.126C89.8965 277.736 91.1597 277.929 92.3697 277.67C93.5798 277.411 94.6526 276.717 95.3851 275.719V275.719Z" fill="#A0616A"/>
<path d="M96.3429 264.925C96.1909 264.978 96.0338 265.015 95.8742 265.035L87.4514 266.1C87.1345 266.14 86.8126 266.112 86.5072 266.018C86.2019 265.924 85.92 265.766 85.6805 265.555C85.4409 265.343 85.2492 265.083 85.1179 264.792C84.9867 264.501 84.919 264.185 84.9193 263.865L84.9858 205.055C84.9956 203.352 85.6139 201.71 86.7289 200.424C87.844 199.137 89.3823 198.292 91.0659 198.041V198.041C92.1297 197.888 93.2145 197.978 94.2384 198.305C95.2622 198.632 96.1983 199.188 96.9761 199.93C97.7538 200.672 98.3528 201.58 98.7278 202.588C99.1027 203.595 99.244 204.674 99.1407 205.744L96.6937 231.088L97.8407 262.722C97.8603 263.201 97.7253 263.674 97.4556 264.071C97.186 264.467 96.7958 264.767 96.3429 264.925Z" fill="#68E1FD"/>
<path d="M174 354.342H71C70.8674 354.342 70.7402 354.29 70.6464 354.196C70.5527 354.102 70.5 353.975 70.5 353.842C70.5 353.71 70.5527 353.583 70.6464 353.489C70.7402 353.395 70.8674 353.342 71 353.342H174C174.133 353.342 174.26 353.395 174.354 353.489C174.447 353.583 174.5 353.71 174.5 353.842C174.5 353.975 174.447 354.102 174.354 354.196C174.26 354.29 174.133 354.342 174 354.342Z" fill="#CCCCCC"/>
</g>
<defs>
<clipPath id="clip0">
<rect width="362.362" height="238.342" fill="white" transform="translate(70.5 116)"/>
</clipPath>
</defs>
</svg>
