<svg width="517" height="441" viewBox="0 0 517 441" fill="none" xmlns="http://www.w3.org/2000/svg">
<g clip-path="url(#clip0)">
<path opacity="0.18" d="M323.68 434.36C348.57 434.66 373.54 434.94 398.25 431.96C410.58 430.48 423.01 428.12 434.07 422.47C446.25 416.25 456.14 406.36 465.17 396.08C484.66 373.9 501.38 348.73 510.17 320.55C518.96 292.37 519.35 260.89 507.29 233.94C499.29 215.94 485.96 200.3 481.04 181.26C472.88 149.68 489.31 115.26 479.69 84.0901C476.01 72.1701 468.69 61.6601 460.41 52.3501C427.21 15.1201 375.41 -4.64988 325.88 0.940121C263.96 7.94012 210.01 51.0801 147.88 55.2101C126.88 56.6001 105.46 53.4401 84.88 57.8101C48.81 65.4501 19.49 98.0501 15.7 134.72C13.18 159.21 20.95 183.4 26.44 207.4C32.24 232.79 35.44 259.64 28.24 284.66C22.8 303.5 11.7 320.28 5.82 338.98C0.37 356.14 -0.43 374.41 0.19 392.38C0.38 397.7 0.749999 403.18 3.06 407.98C10.89 424.19 41.34 428.92 57.3 430.35C85.52 432.9 114.96 431.18 143.3 431.67C203.44 432.723 263.567 433.62 323.68 434.36Z" fill="#68E1FD"/>
<path d="M254.76 425.3C255.049 426.086 255.084 426.943 254.86 427.75C254.675 428.191 254.411 428.595 254.08 428.94C250.99 432.43 246.38 434.1 241.98 435.63C240.447 436.202 238.872 436.656 237.27 436.99C235.557 437.253 233.823 437.357 232.09 437.3C226.408 437.261 220.732 436.901 215.09 436.22C216.314 433.099 218.299 430.333 220.865 428.174C223.43 426.015 226.495 424.532 229.78 423.86C232.89 423.25 236.09 423.4 239.24 423.09C239.458 423.102 239.675 423.061 239.874 422.97C240.073 422.88 240.246 422.742 240.38 422.57C240.502 422.248 240.502 421.892 240.38 421.57L239.12 416.87C238.966 416.475 238.941 416.04 239.05 415.63C239.26 415.05 239.93 414.79 240.52 414.63C242.65 414.01 244.06 407.76 246.34 407.63C248.62 407.5 251.79 414.96 252.19 417.33C252.67 420.25 254.43 424.07 254.76 425.3Z" fill="#68E1FD"/>
<path d="M254.76 425.3C255.049 426.086 255.084 426.943 254.86 427.75C254.675 428.191 254.411 428.595 254.08 428.94C250.99 432.43 246.38 434.1 241.98 435.63C240.447 436.202 238.872 436.656 237.27 436.99C235.557 437.253 233.823 437.357 232.09 437.3C226.408 437.261 220.732 436.901 215.09 436.22C216.314 433.099 218.299 430.333 220.865 428.174C223.43 426.015 226.495 424.532 229.78 423.86C232.89 423.25 236.09 423.4 239.24 423.09C239.458 423.102 239.675 423.061 239.874 422.97C240.073 422.88 240.246 422.742 240.38 422.57C240.502 422.248 240.502 421.892 240.38 421.57L239.12 416.87C238.966 416.475 238.941 416.04 239.05 415.63C239.26 415.05 239.93 414.79 240.52 414.63C242.65 414.01 244.06 407.76 246.34 407.63C248.62 407.5 251.79 414.96 252.19 417.33C252.67 420.25 254.43 424.07 254.76 425.3Z" fill="url(#paint0_linear)"/>
<path d="M317.92 430.91C323.84 436.58 332.83 437.75 340.92 436.82C342.29 436.66 343.85 436.33 344.53 435.13C345.21 433.93 344.7 432.42 343.97 431.25C342.25 428.53 339.46 426.67 336.65 425.09C332.5 422.769 328.116 420.895 323.57 419.5C322.611 419.272 321.702 418.868 320.89 418.31C319.12 416.91 318.95 414.31 317.55 412.51C316.96 411.76 310.29 409.97 309.64 410.51C307.64 412.05 310.03 416.91 310.9 419.19C312.57 423.42 314.57 427.7 317.92 430.91Z" fill="#68E1FD"/>
<path d="M317.92 430.91C323.84 436.58 332.83 437.75 340.92 436.82C342.29 436.66 343.85 436.33 344.53 435.13C345.21 433.93 344.7 432.42 343.97 431.25C342.25 428.53 339.46 426.67 336.65 425.09C332.5 422.769 328.116 420.895 323.57 419.5C322.611 419.272 321.702 418.868 320.89 418.31C319.12 416.91 318.95 414.31 317.55 412.51C316.96 411.76 310.29 409.97 309.64 410.51C307.64 412.05 310.03 416.91 310.9 419.19C312.57 423.42 314.57 427.7 317.92 430.91Z" fill="url(#paint1_linear)"/>
<path d="M460.62 240.32H411.52V440.36H460.62V240.32Z" fill="#68E1FD"/>
<path d="M101.45 240.32H52.35V440.36H101.45V240.32Z" fill="#68E1FD"/>
<path d="M101.45 240.32H52.35V296.18H101.45V240.32Z" fill="url(#paint2_linear)"/>
<path d="M460.49 240.32H411.39V296.18H460.49V240.32Z" fill="url(#paint3_linear)"/>
<path d="M471.54 223.95H34.17V243.95H471.54V223.95Z" fill="#68E1FD"/>
<path d="M255.12 271.23C255.12 271.23 188.74 300.33 186.01 305.33C183.28 310.33 184.19 323.06 188.29 328.52C192.39 333.98 237.39 416.27 237.39 416.27L252.39 412.17L222.84 323.06C222.84 323.06 304.68 318.52 310.59 312.61C316.5 306.7 324.68 288.97 324.68 288.97L281.94 250.32L255.12 271.23Z" fill="#68E1FD"/>
<path d="M255.12 271.23C255.12 271.23 188.74 300.33 186.01 305.33C183.28 310.33 184.19 323.06 188.29 328.52C192.39 333.98 237.39 416.27 237.39 416.27L252.39 412.17L222.84 323.06C222.84 323.06 304.68 318.52 310.59 312.61C316.5 306.7 324.68 288.97 324.68 288.97L281.94 250.32L255.12 271.23Z" fill="url(#paint4_linear)"/>
<path d="M293.24 59.3701H100.62C94.8044 59.3701 90.09 64.0846 90.09 69.9001V183.41C90.09 189.226 94.8044 193.94 100.62 193.94H293.24C299.056 193.94 303.77 189.226 303.77 183.41V69.9001C303.77 64.0846 299.056 59.3701 293.24 59.3701Z" fill="#68E1FD"/>
<path d="M286.97 65H106.35C100.993 65 96.65 69.3428 96.65 74.7V177.36C96.65 182.717 100.993 187.06 106.35 187.06H286.97C292.327 187.06 296.67 182.717 296.67 177.36V74.7C296.67 69.3428 292.327 65 286.97 65Z" fill="url(#paint5_linear)"/>
<path d="M286.97 65H106.35C100.993 65 96.65 69.3428 96.65 74.7V177.36C96.65 182.717 100.993 187.06 106.35 187.06H286.97C292.327 187.06 296.67 182.717 296.67 177.36V74.7C296.67 69.3428 292.327 65 286.97 65Z" fill="url(#paint6_linear)"/>
<path d="M269.78 116.38C264.78 125.38 257.78 133.1 253.13 142.28C249.76 148.99 247.76 156.28 244.72 163.16C241.68 170.04 237.33 176.7 230.72 180.32C228.03 181.8 224.82 182.94 223.43 185.67C237.509 187.878 251.751 188.882 266 188.67C266.911 188.721 267.821 188.574 268.67 188.24C269.661 187.637 270.48 186.79 271.05 185.78C280.73 171.92 296.74 161.95 301.43 145.71C303.6 138.24 303.04 130.28 302.43 122.52C301.69 112.37 300.94 102.2 299.43 92.1199C298.31 84.5099 297.5 76.2399 289.43 73.0099C284.78 71.1399 278.26 71.0099 273.89 73.7499C267.84 77.4799 270.76 81.7499 273.07 86.9399C277.57 96.6099 274.75 107.51 269.78 116.38Z" fill="url(#paint7_linear)"/>
<path d="M298.01 114.24C298.299 114.191 298.596 114.244 298.85 114.39C299.014 114.567 299.119 114.791 299.15 115.03C299.35 116.535 299.451 118.052 299.45 119.57C299.462 121.098 299.994 122.576 300.96 123.76C302.46 125.35 304.89 125.5 307.07 125.56C307.53 125.594 307.992 125.557 308.44 125.45C309.039 125.181 309.606 124.845 310.13 124.45C311.68 123.56 313.64 123.71 315.23 122.9C315.843 122.57 316.397 122.141 316.87 121.63C320.02 118.33 320.31 113.16 319.25 108.71C318.19 104.26 316.04 100.15 314.88 95.7099C313.88 91.7999 313.6 87.5399 311.35 84.1799C311.143 83.7839 310.843 83.4441 310.475 83.1898C310.107 82.9355 309.684 82.7742 309.24 82.7199C305.882 82.1213 302.466 81.9166 299.06 82.1099C296.32 82.1099 293.46 82.2599 291.06 83.5699C289.52 84.3999 285.22 77.8399 284.14 79.2099C283.38 80.2099 285.19 100.82 285.44 102.41C287.57 115.86 294.24 114.43 298.01 114.24Z" fill="url(#paint8_linear)"/>
<path d="M266.71 153.03C266.71 153.03 273.99 127.11 289.22 122.34C304.45 117.57 327.41 116.2 332.64 117.56C337.87 118.92 352.87 127.34 354.46 151.44C356.05 175.54 357.41 187.58 357.41 187.58L353.32 288.97C353.32 288.97 297.4 298.06 282.4 291.24L276.94 266.24L271.49 285.79L255.12 271.24L264.21 240.78C264.21 240.78 262.85 168.03 266.71 153.03Z" fill="#68E1FD"/>
<path d="M266.71 153.03C266.71 153.03 273.99 127.11 289.22 122.34C304.45 117.57 327.41 116.2 332.64 117.56C337.87 118.92 352.87 127.34 354.46 151.44C356.05 175.54 357.41 187.58 357.41 187.58L353.32 288.97C353.32 288.97 297.4 298.06 282.4 291.24L276.94 266.24L271.49 285.79L255.12 271.24L264.21 240.78C264.21 240.78 262.85 168.03 266.71 153.03Z" fill="url(#paint9_linear)"/>
<path opacity="0.48" d="M325.26 187.86C321.57 193.96 319.88 201.02 318.26 207.94L307.63 252.86C305.42 262.22 303.16 271.72 298.57 280.17C293.98 288.62 286.7 296.08 277.45 298.72C270.59 300.72 263.27 299.89 256.18 300.67C249.065 301.512 242.225 303.921 236.154 307.726C230.082 311.53 224.931 316.634 221.07 322.67C250.331 323.059 279.585 321.422 308.62 317.77C312.91 317.23 317.35 316.59 321.01 314.28C325.3 311.56 327.94 306.9 330.01 302.28C334.52 292.4 337.42 281.87 340.01 271.28C344.21 253.917 347.521 236.351 349.93 218.65C352.13 202.52 356.62 182.34 353.86 166.31C343.29 168.69 330.88 178.62 325.26 187.86Z" fill="url(#paint10_linear)"/>
<path d="M236.88 221L263.08 220.77L263.76 208.72L236.88 221Z" stroke="#3CB6D5" stroke-width="1.28" stroke-miterlimit="10"/>
<path d="M253.31 322.61L307.86 414.45L319.68 411.72L292.4 319.43L253.31 322.61Z" fill="#68E1FD"/>
<path d="M253.31 322.61L307.86 414.45L319.68 411.72L292.4 319.43L253.31 322.61Z" fill="url(#paint11_linear)"/>
<path d="M423.8 223.5C421.52 232.61 401.95 308.5 401.95 308.5C401.95 308.5 396.95 329.42 381.51 329.42C373.22 329.42 332.63 328.7 296.78 328.02C265.78 327.44 238.31 326.9 238.31 326.9C238.31 326.9 234.68 313.49 246.02 312.56C257.36 311.63 289.66 312.56 289.66 312.56C289.66 312.56 305.6 311.69 311.95 295.76C317.18 282.76 329.09 229.97 333.26 211.37C334.366 206.294 336.62 201.539 339.85 197.47C347.02 188.31 361.26 173.78 380.15 172.57C399.77 171.26 412.37 178.62 418.86 185.16C420.94 187.128 422.618 189.482 423.8 192.09C426.07 198.02 426.07 214.39 423.8 223.5Z" fill="#68E1FD"/>
<path d="M418.86 185.18C418.86 185.76 418.86 186.3 418.81 186.88C418.81 186.88 380.59 173.27 351.96 216.23L325.36 309.63C325.36 309.63 320.08 327.36 296.78 328.04C265.78 327.46 238.31 326.92 238.31 326.92C238.31 326.92 234.68 313.51 246.02 312.58C257.36 311.65 289.66 312.58 289.66 312.58C289.66 312.58 305.6 311.71 311.95 295.78C317.18 282.78 329.09 229.99 333.26 211.39C334.366 206.314 336.62 201.559 339.85 197.49C347.02 188.33 361.26 173.8 380.15 172.59C399.77 171.28 412.37 178.64 418.86 185.18Z" fill="url(#paint12_linear)"/>
<path d="M319.22 328.33H311.95V440.82H319.22V328.33Z" fill="#68E1FD"/>
<path d="M319.22 328.33H311.95V440.82H319.22V328.33Z" fill="url(#paint13_linear)"/>
<path d="M343.71 431.93H291.33C288.845 431.93 286.83 433.945 286.83 436.43C286.83 438.915 288.845 440.93 291.33 440.93H343.71C346.195 440.93 348.21 438.915 348.21 436.43C348.21 433.945 346.195 431.93 343.71 431.93Z" fill="#68E1FD"/>
<path d="M343.71 431.93H291.33C288.845 431.93 286.83 433.945 286.83 436.43C286.83 438.915 288.845 440.93 291.33 440.93H343.71C346.195 440.93 348.21 438.915 348.21 436.43C348.21 433.945 346.195 431.93 343.71 431.93Z" fill="url(#paint14_linear)"/>
<path d="M232.85 193.88H170.79V219.57H232.85V193.88Z" fill="#68E1FD"/>
<path d="M232.85 193.88H170.79V219.57H232.85V193.88Z" fill="url(#paint15_linear)"/>
<path d="M256.39 212.97H142.73V223.88H256.39V212.97Z" fill="#68E1FD"/>
<path d="M258.18 213.77H144.52V222.32H258.18V213.77Z" fill="url(#paint16_linear)"/>
<path d="M296.11 61.9299C294.23 63.3299 292.6 65.0599 290.62 66.3099C287.897 67.9284 284.788 68.785 281.62 68.7899C279.47 68.8599 276.84 68.8899 275.81 70.7899C274.96 72.3399 275.81 74.2999 276.89 75.6799C277.908 76.9328 279.157 77.9784 280.57 78.7599C281.292 79.0931 281.965 79.5238 282.57 80.0399C283.8 81.2899 283.81 83.2699 284.57 84.8499C285.65 87.0699 288.11 88.2499 289.69 90.1499C292.8 93.8799 292.04 99.6399 294.69 103.68C296.294 105.842 298.504 107.478 301.04 108.38C304.445 109.859 308.193 110.371 311.87 109.86C315.544 109.336 318.864 107.385 321.11 104.43C323 101.8 323.76 98.5399 324.3 95.3499C325.37 89.0599 325.74 82.5299 324.16 76.3499C321.04 64.1999 308.18 52.9599 296.11 61.9299Z" fill="#3F3D56"/>
<path d="M296.11 61.9299C294.23 63.3299 292.6 65.0599 290.62 66.3099C287.897 67.9284 284.788 68.785 281.62 68.7899C279.47 68.8599 276.84 68.8899 275.81 70.7899C274.96 72.3399 275.81 74.2999 276.89 75.6799C277.908 76.9328 279.157 77.9784 280.57 78.7599C281.292 79.0931 281.965 79.5238 282.57 80.0399C283.8 81.2899 283.81 83.2699 284.57 84.8499C285.65 87.0699 288.11 88.2499 289.69 90.1499C292.8 93.8799 292.04 99.6399 294.69 103.68C296.294 105.842 298.504 107.478 301.04 108.38C304.445 109.859 308.193 110.371 311.87 109.86C315.544 109.336 318.864 107.385 321.11 104.43C323 101.8 323.76 98.5399 324.3 95.3499C325.37 89.0599 325.74 82.5299 324.16 76.3499C321.04 64.1999 308.18 52.9599 296.11 61.9299Z" fill="url(#paint17_linear)"/>
<path d="M299.29 132.17C300.608 134.011 301.511 136.116 301.936 138.34C302.361 140.563 302.297 142.853 301.75 145.05C299.13 156.42 291.88 183.4 279.67 195.05C263.98 210.05 240.12 225.74 190.67 224.38L191.36 210.74C191.36 210.74 244.89 205.96 249.66 188.23C254.43 170.5 273.19 132.31 280.01 128.56C285.37 125.64 293.9 125.01 299.29 132.17Z" fill="#68E1FD"/>
<path d="M299.29 132.17C300.608 134.011 301.511 136.116 301.936 138.34C302.361 140.563 302.297 142.853 301.75 145.05C299.13 156.42 291.88 183.4 279.67 195.05C263.98 210.05 240.12 225.74 190.67 224.38L191.36 210.74C191.36 210.74 244.89 205.96 249.66 188.23C254.43 170.5 273.19 132.31 280.01 128.56C285.37 125.64 293.9 125.01 299.29 132.17Z" fill="url(#paint18_linear)"/>
<path d="M180.18 210.04C176.131 209.264 171.948 209.579 168.061 210.954C164.174 212.328 160.722 214.711 158.06 217.86L169.91 219.02C170.679 219.028 171.434 219.235 172.1 219.62C172.608 220.095 173.092 220.596 173.55 221.12C174.573 221.833 175.805 222.185 177.05 222.12C180.76 222.29 184.48 222.3 188.19 222.12C188.65 222.15 189.107 222.027 189.49 221.77C189.782 221.473 189.975 221.092 190.04 220.68C190.53 218.78 191.61 213.46 189.77 212.13C188.91 211.52 186.27 211.6 185.16 211.31C183.5 210.93 181.87 210.38 180.18 210.04Z" fill="url(#paint19_linear)"/>
<path opacity="0.18" d="M441.27 51.49V97.94C441.267 100.402 440.287 102.762 438.546 104.503C436.804 106.243 434.442 107.22 431.98 107.22H397.9L383.44 128.79V107.22H359.9C358.68 107.221 357.473 106.982 356.346 106.516C355.219 106.051 354.194 105.367 353.332 104.505C352.469 103.644 351.784 102.62 351.317 101.494C350.85 100.367 350.61 99.1595 350.61 97.94V51.49C350.61 50.2705 350.85 49.0629 351.317 47.9364C351.784 46.8098 352.469 45.7863 353.332 44.9245C354.194 44.0626 355.219 43.3793 356.346 42.9135C357.473 42.4477 358.68 42.2087 359.9 42.21H431.98C434.442 42.21 436.804 43.1874 438.546 44.9274C440.287 46.6675 441.267 49.0278 441.27 51.49V51.49Z" fill="#68E1FD"/>
<path d="M437.68 49.1001V95.5501C437.68 96.7696 437.44 97.9771 436.973 99.1037C436.506 100.23 435.821 101.254 434.958 102.116C434.096 102.977 433.071 103.661 431.944 104.127C430.817 104.592 429.61 104.831 428.39 104.83H394.32L379.85 126.4V104.86H356.32C355.1 104.861 353.892 104.622 352.764 104.157C351.637 103.691 350.612 103.008 349.748 102.146C348.884 101.284 348.199 100.261 347.731 99.1344C347.263 98.0078 347.021 96.8001 347.02 95.5801V49.1001C347.021 47.8801 347.263 46.6723 347.731 45.5457C348.199 44.4191 348.884 43.3957 349.748 42.534C350.612 41.6723 351.637 40.9891 352.764 40.5234C353.892 40.0578 355.1 39.8188 356.32 39.8201H428.39C429.61 39.8188 430.817 40.0578 431.944 40.5236C433.071 40.9894 434.096 41.6727 434.958 42.5346C435.821 43.3964 436.506 44.4199 436.973 45.5465C437.44 46.673 437.68 47.8806 437.68 49.1001V49.1001Z" fill="white"/>
<path d="M118.08 73.0701H109.64V177.47H118.08V73.0701Z" fill="url(#paint20_linear)"/>
<path d="M373.51 73.07L388.13 65.54V67.72L375.81 73.86V73.93L388.13 80.1V82.28L373.51 74.75V73.07Z" fill="#68E1FD"/>
<path d="M390.17 83.57L398.96 60.72H401.1L392.28 83.57H390.17Z" fill="#68E1FD"/>
<path d="M417.7 74.86L403.09 82.36V80.13L415.5 73.96V73.86L403.09 67.69V65.54L417.7 73.04V74.86Z" fill="#68E1FD"/>
<path d="M161.3 89.6799H134.17V91.6699H161.3V89.6799Z" fill="url(#paint21_linear)"/>
<path d="M150.73 93.53H134.17V95.4H150.73V93.53Z" fill="url(#paint22_linear)"/>
<path d="M209.52 93.53H157.41V95.41H209.52V93.53Z" fill="url(#paint23_linear)"/>
<path d="M243.72 93.53H214.39V95.41H243.72V93.53Z" fill="url(#paint24_linear)"/>
<path d="M165.55 97.3899H142.78V99.3599H165.55V97.3899Z" fill="url(#paint25_linear)"/>
<path d="M177.22 101.24H150.09V103.23H177.22V101.24Z" fill="url(#paint26_linear)"/>
<path d="M201.73 101.24H178.99V103.45H201.73V101.24Z" fill="url(#paint27_linear)"/>
<path d="M171 105.09H150.05V106.96H171V105.09Z" fill="url(#paint28_linear)"/>
<path d="M252.46 105.09H231.51V106.96H252.46V105.09Z" fill="url(#paint29_linear)"/>
<path d="M216.24 105.09H173.01V107.16H216.24V105.09Z" fill="url(#paint30_linear)"/>
<path d="M229.88 105.09H220.35V107.2H229.88V105.09Z" fill="url(#paint31_linear)"/>
<path d="M161.3 110.3H134.17V112.29H161.3V110.3Z" fill="url(#paint32_linear)"/>
<path d="M150.73 114.15H134.17V116.02H150.73V114.15Z" fill="url(#paint33_linear)"/>
<path d="M209.52 114.15H157.41V116.03H209.52V114.15Z" fill="url(#paint34_linear)"/>
<path d="M243.72 114.15H214.39V116.03H243.72V114.15Z" fill="url(#paint35_linear)"/>
<path d="M165.55 118H142.78V119.97H165.55V118Z" fill="url(#paint36_linear)"/>
<path d="M177.22 121.86H150.09V123.85H177.22V121.86Z" fill="url(#paint37_linear)"/>
<path d="M201.73 121.86H178.99V124.07H201.73V121.86Z" fill="url(#paint38_linear)"/>
<path d="M171 125.71H150.05V127.58H171V125.71Z" fill="url(#paint39_linear)"/>
<path d="M252.46 125.71H231.51V127.58H252.46V125.71Z" fill="url(#paint40_linear)"/>
<path d="M216.24 125.71H173.01V127.78H216.24V125.71Z" fill="url(#paint41_linear)"/>
<path d="M229.88 125.71H220.35V127.82H229.88V125.71Z" fill="url(#paint42_linear)"/>
<path d="M161.3 130.92H134.17V132.91H161.3V130.92Z" fill="url(#paint43_linear)"/>
<path d="M150.73 134.77H134.17V136.64H150.73V134.77Z" fill="url(#paint44_linear)"/>
<path d="M209.52 134.77H157.41V136.65H209.52V134.77Z" fill="url(#paint45_linear)"/>
<path d="M243.72 134.77H214.39V136.65H243.72V134.77Z" fill="url(#paint46_linear)"/>
<path d="M165.55 138.62H142.78V140.59H165.55V138.62Z" fill="url(#paint47_linear)"/>
<path d="M177.22 142.47H150.09V144.46H177.22V142.47Z" fill="url(#paint48_linear)"/>
<path d="M201.73 142.47H178.99V144.68H201.73V142.47Z" fill="url(#paint49_linear)"/>
<path d="M171 146.33H150.05V148.2H171V146.33Z" fill="url(#paint50_linear)"/>
<path d="M252.46 146.33H231.51V148.2H252.46V146.33Z" fill="url(#paint51_linear)"/>
<path d="M216.24 146.33H173.01V148.4H216.24V146.33Z" fill="url(#paint52_linear)"/>
<path d="M229.88 146.33H220.35V148.44H229.88V146.33Z" fill="url(#paint53_linear)"/>
</g>
<defs>
<linearGradient id="paint0_linear" x1="206.92" y1="408.03" x2="282.82" y2="451.95" gradientUnits="userSpaceOnUse">
<stop stop-opacity="0"/>
<stop offset="0.99"/>
</linearGradient>
<linearGradient id="paint1_linear" x1="12476.3" y1="11548.5" x2="11906.7" y2="12491.2" gradientUnits="userSpaceOnUse">
<stop stop-opacity="0"/>
<stop offset="0.99"/>
</linearGradient>
<linearGradient id="paint2_linear" x1="281.647" y1="14519.2" x2="46250.7" y2="21582.7" gradientUnits="userSpaceOnUse">
<stop stop-opacity="0"/>
<stop offset="0.99"/>
</linearGradient>
<linearGradient id="paint3_linear" x1="18269.1" y1="14519.2" x2="64238.1" y2="21582.6" gradientUnits="userSpaceOnUse">
<stop stop-opacity="0"/>
<stop offset="0.99"/>
</linearGradient>
<linearGradient id="paint4_linear" x1="23013.9" y1="57123" x2="88318.9" y2="55282.2" gradientUnits="userSpaceOnUse">
<stop stop-opacity="0"/>
<stop offset="0.99"/>
</linearGradient>
<linearGradient id="paint5_linear" x1="39488.6" y1="14790.3" x2="37258.5" y2="86103.9" gradientUnits="userSpaceOnUse">
<stop stop-opacity="0"/>
<stop offset="0.99"/>
</linearGradient>
<linearGradient id="paint6_linear" x1="194.43" y1="234.15" x2="198.91" y2="17.21" gradientUnits="userSpaceOnUse">
<stop stop-color="white" stop-opacity="0"/>
<stop offset="0.99" stop-color="white"/>
</linearGradient>
<linearGradient id="paint7_linear" x1="18896" y1="15774.4" x2="57910.1" y2="17393" gradientUnits="userSpaceOnUse">
<stop stop-opacity="0"/>
<stop offset="0.99"/>
</linearGradient>
<linearGradient id="paint8_linear" x1="283.95" y1="102.31" x2="319.8" y2="102.31" gradientUnits="userSpaceOnUse">
<stop stop-color="#ECC4D7"/>
<stop offset="0.42" stop-color="#EFD4D1"/>
<stop offset="1" stop-color="#F2EAC9"/>
</linearGradient>
<linearGradient id="paint9_linear" x1="27613.6" y1="36568.1" x2="77835.1" y2="39887.4" gradientUnits="userSpaceOnUse">
<stop stop-opacity="0"/>
<stop offset="0.99"/>
</linearGradient>
<linearGradient id="paint10_linear" x1="33692.4" y1="35919.9" x2="96857.6" y2="66857.7" gradientUnits="userSpaceOnUse">
<stop stop-opacity="0"/>
<stop offset="0.99"/>
</linearGradient>
<linearGradient id="paint11_linear" x1="18955.7" y1="38236.2" x2="25159.2" y2="8852.07" gradientUnits="userSpaceOnUse">
<stop stop-opacity="0"/>
<stop offset="0.99"/>
</linearGradient>
<linearGradient id="paint12_linear" x1="51794.2" y1="53499.1" x2="72593.4" y2="8542.19" gradientUnits="userSpaceOnUse">
<stop stop-color="white" stop-opacity="0"/>
<stop offset="0.99" stop-color="white"/>
</linearGradient>
<linearGradient id="paint13_linear" x1="2596.54" y1="47526.9" x2="10314.8" y2="34491" gradientUnits="userSpaceOnUse">
<stop stop-opacity="0"/>
<stop offset="0.99"/>
</linearGradient>
<linearGradient id="paint14_linear" x1="19170.4" y1="4290.05" x2="19361.2" y2="5311.83" gradientUnits="userSpaceOnUse">
<stop stop-opacity="0"/>
<stop offset="0.99"/>
</linearGradient>
<linearGradient id="paint15_linear" x1="12697" y1="5674.33" x2="12694.9" y2="4189.95" gradientUnits="userSpaceOnUse">
<stop stop-opacity="0"/>
<stop offset="0.99"/>
</linearGradient>
<linearGradient id="paint16_linear" x1="22974.3" y1="1962.59" x2="22975.3" y2="2356.58" gradientUnits="userSpaceOnUse">
<stop stop-opacity="0"/>
<stop offset="0.99"/>
</linearGradient>
<linearGradient id="paint17_linear" x1="15010" y1="4335.13" x2="17006.8" y2="5536.84" gradientUnits="userSpaceOnUse">
<stop stop-opacity="0"/>
<stop offset="0.99"/>
</linearGradient>
<linearGradient id="paint18_linear" x1="28421.2" y1="18923.5" x2="25617.5" y2="15340.9" gradientUnits="userSpaceOnUse">
<stop stop-color="white" stop-opacity="0"/>
<stop offset="0.99" stop-color="white"/>
</linearGradient>
<linearGradient id="paint19_linear" x1="5380.27" y1="3013.7" x2="6452.29" y2="3013.7" gradientUnits="userSpaceOnUse">
<stop stop-color="#ECC4D7"/>
<stop offset="0.42" stop-color="#EFD4D1"/>
<stop offset="1" stop-color="#F2EAC9"/>
</linearGradient>
<linearGradient id="paint20_linear" x1="851.854" y1="13611.7" x2="1492.7" y2="13602.9" gradientUnits="userSpaceOnUse">
<stop stop-color="white" stop-opacity="0"/>
<stop offset="0.99" stop-color="white"/>
</linearGradient>
<linearGradient id="paint21_linear" x1="4170.03" y1="160.763" x2="4169.81" y2="319.6" gradientUnits="userSpaceOnUse">
<stop stop-color="white" stop-opacity="0"/>
<stop offset="0.99" stop-color="white"/>
</linearGradient>
<linearGradient id="paint22_linear" x1="2511.36" y1="160.158" x2="2511.04" y2="309.398" gradientUnits="userSpaceOnUse">
<stop stop-color="white" stop-opacity="0"/>
<stop offset="0.99" stop-color="white"/>
</linearGradient>
<linearGradient id="paint23_linear" x1="9774.31" y1="161.943" x2="9774.21" y2="312.002" gradientUnits="userSpaceOnUse">
<stop stop-color="white" stop-opacity="0"/>
<stop offset="0.99" stop-color="white"/>
</linearGradient>
<linearGradient id="paint24_linear" x1="6963.81" y1="163.56" x2="6963.63" y2="313.599" gradientUnits="userSpaceOnUse">
<stop stop-color="white" stop-opacity="0"/>
<stop offset="0.99" stop-color="white"/>
</linearGradient>
<linearGradient id="paint25_linear" x1="3679.87" y1="168.014" x2="3679.62" y2="325.236" gradientUnits="userSpaceOnUse">
<stop stop-color="white" stop-opacity="0"/>
<stop offset="0.99" stop-color="white"/>
</linearGradient>
<linearGradient id="paint26_linear" x1="4623.83" y1="172.92" x2="4623.61" y2="331.758" gradientUnits="userSpaceOnUse">
<stop stop-color="white" stop-opacity="0"/>
<stop offset="0.99" stop-color="white"/>
</linearGradient>
<linearGradient id="paint27_linear" x1="4535.74" y1="181.949" x2="4535.42" y2="358.346" gradientUnits="userSpaceOnUse">
<stop stop-color="white" stop-opacity="0"/>
<stop offset="0.99" stop-color="white"/>
</linearGradient>
<linearGradient id="paint28_linear" x1="3540.6" y1="172.354" x2="3540.35" y2="321.595" gradientUnits="userSpaceOnUse">
<stop stop-color="white" stop-opacity="0"/>
<stop offset="0.99" stop-color="white"/>
</linearGradient>
<linearGradient id="paint29_linear" x1="5328.02" y1="175.196" x2="5327.77" y2="324.456" gradientUnits="userSpaceOnUse">
<stop stop-color="white" stop-opacity="0"/>
<stop offset="0.99" stop-color="white"/>
</linearGradient>
<linearGradient id="paint30_linear" x1="8643.07" y1="180.873" x2="8642.92" y2="346.076" gradientUnits="userSpaceOnUse">
<stop stop-color="white" stop-opacity="0"/>
<stop offset="0.99" stop-color="white"/>
</linearGradient>
<linearGradient id="paint31_linear" x1="2378.04" y1="183.54" x2="2377.34" y2="351.932" gradientUnits="userSpaceOnUse">
<stop stop-color="white" stop-opacity="0"/>
<stop offset="0.99" stop-color="white"/>
</linearGradient>
<linearGradient id="paint32_linear" x1="4170.03" y1="222.417" x2="4169.81" y2="381.254" gradientUnits="userSpaceOnUse">
<stop stop-color="white" stop-opacity="0"/>
<stop offset="0.99" stop-color="white"/>
</linearGradient>
<linearGradient id="paint33_linear" x1="2511.36" y1="219.318" x2="2511.04" y2="368.577" gradientUnits="userSpaceOnUse">
<stop stop-color="white" stop-opacity="0"/>
<stop offset="0.99" stop-color="white"/>
</linearGradient>
<linearGradient id="paint34_linear" x1="9774.31" y1="221.329" x2="9774.21" y2="371.386" gradientUnits="userSpaceOnUse">
<stop stop-color="white" stop-opacity="0"/>
<stop offset="0.99" stop-color="white"/>
</linearGradient>
<linearGradient id="paint35_linear" x1="6963.81" y1="222.927" x2="6963.63" y2="372.984" gradientUnits="userSpaceOnUse">
<stop stop-color="white" stop-opacity="0"/>
<stop offset="0.99" stop-color="white"/>
</linearGradient>
<linearGradient id="paint36_linear" x1="3679.87" y1="229.226" x2="3679.62" y2="386.468" gradientUnits="userSpaceOnUse">
<stop stop-color="white" stop-opacity="0"/>
<stop offset="0.99" stop-color="white"/>
</linearGradient>
<linearGradient id="paint37_linear" x1="4623.83" y1="234.574" x2="4623.61" y2="393.411" gradientUnits="userSpaceOnUse">
<stop stop-color="white" stop-opacity="0"/>
<stop offset="0.99" stop-color="white"/>
</linearGradient>
<linearGradient id="paint38_linear" x1="4535.74" y1="248.139" x2="4535.42" y2="424.536" gradientUnits="userSpaceOnUse">
<stop stop-color="white" stop-opacity="0"/>
<stop offset="0.99" stop-color="white"/>
</linearGradient>
<linearGradient id="paint39_linear" x1="3540.6" y1="231.533" x2="3540.35" y2="380.774" gradientUnits="userSpaceOnUse">
<stop stop-color="white" stop-opacity="0"/>
<stop offset="0.99" stop-color="white"/>
</linearGradient>
<linearGradient id="paint40_linear" x1="5328.02" y1="234.376" x2="5327.77" y2="383.616" gradientUnits="userSpaceOnUse">
<stop stop-color="white" stop-opacity="0"/>
<stop offset="0.99" stop-color="white"/>
</linearGradient>
<linearGradient id="paint41_linear" x1="8643.07" y1="244.155" x2="8642.92" y2="409.378" gradientUnits="userSpaceOnUse">
<stop stop-color="white" stop-opacity="0"/>
<stop offset="0.99" stop-color="white"/>
</linearGradient>
<linearGradient id="paint42_linear" x1="2378.04" y1="247.668" x2="2377.34" y2="416.06" gradientUnits="userSpaceOnUse">
<stop stop-color="white" stop-opacity="0"/>
<stop offset="0.99" stop-color="white"/>
</linearGradient>
<linearGradient id="paint43_linear" x1="4170.03" y1="284.071" x2="4169.81" y2="442.888" gradientUnits="userSpaceOnUse">
<stop stop-color="white" stop-opacity="0"/>
<stop offset="0.99" stop-color="white"/>
</linearGradient>
<linearGradient id="paint44_linear" x1="2511.36" y1="278.498" x2="2511.04" y2="427.756" gradientUnits="userSpaceOnUse">
<stop stop-color="white" stop-opacity="0"/>
<stop offset="0.99" stop-color="white"/>
</linearGradient>
<linearGradient id="paint45_linear" x1="9774.31" y1="280.714" x2="9774.21" y2="430.752" gradientUnits="userSpaceOnUse">
<stop stop-color="white" stop-opacity="0"/>
<stop offset="0.99" stop-color="white"/>
</linearGradient>
<linearGradient id="paint46_linear" x1="6963.81" y1="282.312" x2="6963.63" y2="432.368" gradientUnits="userSpaceOnUse">
<stop stop-color="white" stop-opacity="0"/>
<stop offset="0.99" stop-color="white"/>
</linearGradient>
<linearGradient id="paint47_linear" x1="3679.87" y1="290.468" x2="3679.62" y2="447.709" gradientUnits="userSpaceOnUse">
<stop stop-color="white" stop-opacity="0"/>
<stop offset="0.99" stop-color="white"/>
</linearGradient>
<linearGradient id="paint48_linear" x1="4623.83" y1="296.218" x2="4623.61" y2="455.056" gradientUnits="userSpaceOnUse">
<stop stop-color="white" stop-opacity="0"/>
<stop offset="0.99" stop-color="white"/>
</linearGradient>
<linearGradient id="paint49_linear" x1="4535.74" y1="314.319" x2="4535.42" y2="490.715" gradientUnits="userSpaceOnUse">
<stop stop-color="white" stop-opacity="0"/>
<stop offset="0.99" stop-color="white"/>
</linearGradient>
<linearGradient id="paint50_linear" x1="3540.6" y1="290.694" x2="3540.35" y2="439.952" gradientUnits="userSpaceOnUse">
<stop stop-color="white" stop-opacity="0"/>
<stop offset="0.99" stop-color="white"/>
</linearGradient>
<linearGradient id="paint51_linear" x1="5328.02" y1="293.555" x2="5327.77" y2="442.795" gradientUnits="userSpaceOnUse">
<stop stop-color="white" stop-opacity="0"/>
<stop offset="0.99" stop-color="white"/>
</linearGradient>
<linearGradient id="paint52_linear" x1="8643.07" y1="307.458" x2="8642.92" y2="472.68" gradientUnits="userSpaceOnUse">
<stop stop-color="white" stop-opacity="0"/>
<stop offset="0.99" stop-color="white"/>
</linearGradient>
<linearGradient id="paint53_linear" x1="2378.04" y1="311.775" x2="2377.34" y2="480.189" gradientUnits="userSpaceOnUse">
<stop stop-color="white" stop-opacity="0"/>
<stop offset="0.99" stop-color="white"/>
</linearGradient>
<clipPath id="clip0">
<rect width="516.62" height="440.93" fill="white"/>
</clipPath>
</defs>
</svg>
