<svg width="459" height="389" viewBox="0 0 459 389" fill="none" xmlns="http://www.w3.org/2000/svg">
<g clip-path="url(#clip0)">
<path opacity="0.18" d="M154.114 11.186C128.74 24.7951 110.274 49.6887 102.042 77.2591C97.1791 93.5731 95.6567 110.803 90.1169 126.891C74.3151 172.692 28.7985 202.488 9.38806 246.88C-1.42371 271.59 -3.2985 300.414 5.82173 325.773C14.942 351.131 35.2969 372.672 60.67 381.59C76.2604 387.084 93.0912 387.901 109.57 388.423C140.581 389.409 171.72 389.521 202.182 384.027C216.701 381.421 230.994 377.532 245.64 375.842C273.974 372.559 302.899 377.547 331.063 373.024C350.671 369.84 369.25 362.12 387.011 353.216C400.332 346.539 413.441 339.128 424.436 328.985C453.517 302.33 464.286 259.094 456.477 220.436C448.668 181.779 424.056 147.812 393.199 123.228C379.596 112.451 364.795 103.322 350.544 93.4322C332.197 80.6859 314.768 66.6666 298.388 51.4779C259.215 15.2011 208.68 -18.0468 154.114 11.186Z" fill="#68E1FD"/>
<path d="M164.728 330.52H272.141L253.125 262.264H180.769L164.728 330.52Z" fill="#68E1FD"/>
<path d="M164.728 330.52H272.141L253.125 262.264H180.769L164.728 330.52Z" fill="url(#paint0_linear)"/>
<path d="M379.244 79.8512V255.952C379.244 258.482 378.745 260.988 377.776 263.325C376.806 265.663 375.386 267.786 373.595 269.575C371.804 271.363 369.678 272.782 367.339 273.749C364.999 274.716 362.492 275.212 359.96 275.211H81.7015C79.1705 275.212 76.6639 274.716 74.3252 273.748C71.9865 272.781 69.8615 271.363 68.0718 269.574C66.2821 267.785 64.8628 265.662 63.895 263.324C62.9273 260.987 62.4302 258.482 62.432 255.952V79.8512C62.432 74.7436 64.4622 69.8451 68.0759 66.2335C71.6896 62.6218 76.5909 60.5928 81.7015 60.5928H360.017C365.12 60.604 370.01 62.638 373.615 66.2484C377.219 69.8589 379.244 74.7509 379.244 79.8512Z" fill="#68E1FD"/>
<path d="M379.244 79.8512V234.228H62.432V79.8512C62.4357 74.741 64.4686 69.8411 68.0842 66.2276C71.6997 62.6142 76.6024 60.5825 81.7156 60.5787H360.031C365.133 60.5974 370.02 62.6361 373.621 66.2484C377.222 69.8606 379.244 74.752 379.244 79.8512Z" fill="#473F47"/>
<path d="M374.536 83.5282V229.072H67.2388V83.5282C67.2686 78.6059 69.2499 73.8963 72.7483 70.4315C76.2468 66.9668 80.977 65.0296 85.9022 65.0446H355.844C360.774 65.0221 365.512 66.956 369.016 70.4216C372.521 73.8871 374.506 78.601 374.536 83.5282Z" fill="white"/>
<path opacity="0.18" d="M374.536 83.5282V229.072H67.2388V83.5282C67.2686 78.6059 69.2499 73.8963 72.7483 70.4315C76.2468 66.9668 80.977 65.0296 85.9022 65.0446H355.83C360.763 65.0184 365.504 66.9506 369.011 70.4166C372.519 73.8825 374.506 78.5986 374.536 83.5282Z" fill="#68E1FD"/>
<path d="M371.914 158.829H67.2106V230.171H371.914V158.829Z" fill="white"/>
<path d="M361.06 136.063H276.567V221.436H361.06V136.063Z" fill="url(#paint1_linear)"/>
<path d="M374.536 83.5282V110.408H67.2388V83.5282C67.2686 78.6059 69.2499 73.8963 72.7483 70.4315C76.2468 66.9668 80.977 65.0296 85.9022 65.0446H355.83C360.763 65.0184 365.504 66.9506 369.011 70.4166C372.519 73.8825 374.506 78.5986 374.536 83.5282Z" fill="#68E1FD"/>
<path d="M374.536 83.5282V110.408H67.2388V83.5282C67.2686 78.6059 69.2499 73.8963 72.7483 70.4315C76.2468 66.9668 80.977 65.0296 85.9022 65.0446H355.83C360.763 65.0184 365.504 66.9506 369.011 70.4166C372.519 73.8825 374.506 78.5986 374.536 83.5282Z" fill="url(#paint2_linear)"/>
<path d="M366.783 130.935H282.29V216.308H366.783V130.935Z" fill="white"/>
<path opacity="0.18" d="M362.371 137.373H286.702V211.152H362.371V137.373Z" fill="#68E1FD"/>
<path d="M286.702 178.75L305.225 165.126L328.765 178.75H333.727L316.657 168.705L330.598 158.068L364.203 177.749V211.152H286.702V178.75Z" fill="url(#paint3_linear)"/>
<path d="M129.657 110.606C129.657 114.49 128.504 118.287 126.345 121.516C124.186 124.746 121.117 127.263 117.526 128.749C113.936 130.236 109.985 130.625 106.173 129.867C102.361 129.109 98.86 127.239 96.1119 124.492C93.3638 121.746 91.4923 118.246 90.7341 114.437C89.9759 110.627 90.3651 106.679 91.8523 103.09C93.3396 99.5016 95.8582 96.4344 99.0896 94.2765C102.321 92.1185 106.12 90.9668 110.007 90.9668C112.589 90.9593 115.148 91.4622 117.535 92.4465C119.923 93.4308 122.092 94.8771 123.918 96.7022C125.744 98.5274 127.191 100.695 128.176 103.081C129.161 105.467 129.664 108.024 129.657 110.606Z" fill="white"/>
<path d="M124.216 124.172C120.974 127.563 116.626 129.683 111.956 130.148C107.287 130.613 102.605 129.393 98.7579 126.708L99.7164 123.242C100.046 122.033 100.764 120.964 101.759 120.201C102.755 119.437 103.973 119.021 105.228 119.016H107.441L115.701 119.171C116.929 119.182 118.142 119.436 119.269 119.92C120.397 120.404 121.417 121.107 122.27 121.989L124.216 124.172Z" fill="#68E1FD"/>
<path d="M101.873 115.762L116.759 115.1C116.759 115.1 118.168 102.575 112.657 99.9549C107.554 97.5036 103.522 99.645 102.338 104.012C101.154 108.38 101.873 115.762 101.873 115.762Z" fill="#FB682D"/>
<path d="M107.441 115.325V119.115C107.406 119.475 107.406 119.839 107.441 120.199C107.604 120.665 107.862 121.091 108.199 121.45C108.537 121.809 108.946 122.093 109.4 122.285C109.74 122.485 110.121 122.606 110.514 122.637C110.712 122.657 110.912 122.631 111.099 122.56C111.285 122.489 111.451 122.376 111.585 122.228C111.775 121.956 111.895 121.641 111.938 121.312C112.22 120.587 112.312 119.801 112.206 119.03C111.98 118.396 111.853 117.706 111.67 117.044L111.007 114.522L107.441 115.325Z" fill="#FFBAAA"/>
<path d="M107.554 116.649C107.554 116.649 108.964 119.58 110.57 119.256C112.177 118.932 111.543 116.438 111.543 116.438L107.554 116.649Z" fill="url(#paint4_linear)"/>
<path d="M113.841 112.648C113.623 113.745 113.192 114.789 112.572 115.719C112.256 116.187 111.839 116.577 111.35 116.86C110.862 117.143 110.316 117.312 109.753 117.354C108.955 117.356 108.177 117.11 107.526 116.649C105.017 115.043 103.959 111.873 103.79 108.887C103.632 107.711 103.737 106.514 104.098 105.384C104.459 104.254 105.066 103.217 105.876 102.35C107.073 101.436 108.58 101.027 110.074 101.212C111.569 101.396 112.931 102.159 113.869 103.336C115.532 105.745 114.475 110.098 113.841 112.648Z" fill="#FFBAAA"/>
<path d="M103.804 104.35L103.424 108.577H104.833L105.383 105.928L105.693 108.577H108.301L108.527 105.858L108.893 108.309H111.614V105.759L112.375 108.408H114.912C114.912 108.408 116.406 103.449 112.995 101.702C109.584 99.955 104.89 100.716 103.804 104.35Z" fill="#FB682D"/>
<path d="M143.133 139.754H85.7612C84.9438 139.754 84.2811 140.416 84.2811 141.233V141.444C84.2811 142.261 84.9438 142.924 85.7612 142.924H143.133C143.95 142.924 144.613 142.261 144.613 141.444V141.233C144.613 140.416 143.95 139.754 143.133 139.754Z" fill="#68E1FD"/>
<path d="M124.216 147.404H85.4934C84.8239 147.404 84.2811 147.946 84.2811 148.615V149.362C84.2811 150.031 84.8239 150.573 85.4934 150.573H124.216C124.885 150.573 125.428 150.031 125.428 149.362V148.615C125.428 147.946 124.885 147.404 124.216 147.404Z" fill="#68E1FD"/>
<path d="M171.311 147.404H133.773C133.111 147.404 132.575 147.94 132.575 148.601V149.376C132.575 150.037 133.111 150.573 133.773 150.573H171.311C171.973 150.573 172.509 150.037 172.509 149.376V148.601C172.509 147.94 171.973 147.404 171.311 147.404Z" fill="#68E1FD"/>
<path d="M214.826 147.404H177.288C176.626 147.404 176.09 147.94 176.09 148.601V149.376C176.09 150.037 176.626 150.573 177.288 150.573H214.826C215.488 150.573 216.024 150.037 216.024 149.376V148.601C216.024 147.94 215.488 147.404 214.826 147.404Z" fill="#68E1FD"/>
<path opacity="0.18" d="M239.762 173.621H136.93V188.203H239.762V173.621Z" fill="#68E1FD"/>
<path opacity="0.18" d="M239.762 199.135H136.93V213.716H239.762V199.135Z" fill="#68E1FD"/>
<g opacity="0.24">
<path opacity="0.24" d="M17.5801 80.3218L117.532 80.3218C122.087 80.3218 125.78 76.6254 125.78 72.0656V34.8223C125.78 30.2625 122.087 26.566 117.532 26.566L17.5801 26.566C13.0252 26.566 9.33271 30.2625 9.33271 34.8223V72.0656C9.33271 76.6254 13.0252 80.3218 17.5801 80.3218Z" fill="#68E1FD"/>
<path opacity="0.24" d="M125.78 91.3968V71.8656H109.29L125.78 91.3968Z" fill="#68E1FD"/>
</g>
<path d="M21.6289 71.9006L114.262 71.9006C118.481 71.9006 121.9 68.4771 121.9 64.254V29.7295C121.9 25.5065 118.481 22.083 114.262 22.083L21.6289 22.083C17.4104 22.083 13.9906 25.5065 13.9906 29.7295V64.254C13.9906 68.4771 17.4104 71.9006 21.6289 71.9006Z" fill="white"/>
<path d="M121.901 82.161V64.0641H106.614L121.901 82.161Z" fill="white"/>
<path d="M30.24 51.904L25.368 46.6L30.24 41.296H35.4L30.504 46.6L35.4 51.904H30.24ZM43.0967 46.552C43.0967 44.888 43.4567 43.408 44.1767 42.112C44.8967 40.8 45.8967 39.784 47.1767 39.064C48.4727 38.328 49.9367 37.96 51.5687 37.96C53.5687 37.96 55.2807 38.488 56.7047 39.544C58.1287 40.6 59.0807 42.04 59.5607 43.864H55.0487C54.7127 43.16 54.2327 42.624 53.6087 42.256C53.0007 41.888 52.3047 41.704 51.5207 41.704C50.2567 41.704 49.2327 42.144 48.4487 43.024C47.6647 43.904 47.2727 45.08 47.2727 46.552C47.2727 48.024 47.6647 49.2 48.4487 50.08C49.2327 50.96 50.2567 51.4 51.5207 51.4C52.3047 51.4 53.0007 51.216 53.6087 50.848C54.2327 50.48 54.7127 49.944 55.0487 49.24H59.5607C59.0807 51.064 58.1287 52.504 56.7047 53.56C55.2807 54.6 53.5687 55.12 51.5687 55.12C49.9367 55.12 48.4727 54.76 47.1767 54.04C45.8967 53.304 44.8967 52.288 44.1767 50.992C43.4567 49.696 43.0967 48.216 43.0967 46.552ZM68.1699 55.168C66.9379 55.168 65.8339 54.968 64.8579 54.568C63.8819 54.168 63.0979 53.576 62.5059 52.792C61.9299 52.008 61.6259 51.064 61.5939 49.96H65.9619C66.0259 50.584 66.2419 51.064 66.6099 51.4C66.9779 51.72 67.4579 51.88 68.0499 51.88C68.6579 51.88 69.1379 51.744 69.4899 51.472C69.8419 51.184 70.0179 50.792 70.0179 50.296C70.0179 49.88 69.8739 49.536 69.5859 49.264C69.3139 48.992 68.9699 48.768 68.5539 48.592C68.1539 48.416 67.5779 48.216 66.8259 47.992C65.7379 47.656 64.8499 47.32 64.1619 46.984C63.4739 46.648 62.8819 46.152 62.3859 45.496C61.8899 44.84 61.6419 43.984 61.6419 42.928C61.6419 41.36 62.2099 40.136 63.3459 39.256C64.4819 38.36 65.9619 37.912 67.7859 37.912C69.6419 37.912 71.1379 38.36 72.2739 39.256C73.4099 40.136 74.0179 41.368 74.0979 42.952H69.6579C69.6259 42.408 69.4259 41.984 69.0579 41.68C68.6899 41.36 68.2179 41.2 67.6419 41.2C67.1459 41.2 66.7459 41.336 66.4419 41.608C66.1379 41.864 65.9859 42.24 65.9859 42.736C65.9859 43.28 66.2419 43.704 66.7539 44.008C67.2659 44.312 68.0659 44.64 69.1539 44.992C70.2419 45.36 71.1219 45.712 71.7939 46.048C72.4819 46.384 73.0739 46.872 73.5699 47.512C74.0659 48.152 74.3139 48.976 74.3139 49.984C74.3139 50.944 74.0659 51.816 73.5699 52.6C73.0899 53.384 72.3859 54.008 71.4579 54.472C70.5299 54.936 69.4339 55.168 68.1699 55.168ZM82.9356 55.168C81.7036 55.168 80.5996 54.968 79.6236 54.568C78.6476 54.168 77.8636 53.576 77.2716 52.792C76.6956 52.008 76.3916 51.064 76.3596 49.96H80.7276C80.7916 50.584 81.0076 51.064 81.3756 51.4C81.7436 51.72 82.2236 51.88 82.8156 51.88C83.4236 51.88 83.9036 51.744 84.2556 51.472C84.6076 51.184 84.7836 50.792 84.7836 50.296C84.7836 49.88 84.6396 49.536 84.3516 49.264C84.0796 48.992 83.7356 48.768 83.3196 48.592C82.9196 48.416 82.3436 48.216 81.5916 47.992C80.5036 47.656 79.6156 47.32 78.9276 46.984C78.2396 46.648 77.6476 46.152 77.1516 45.496C76.6556 44.84 76.4076 43.984 76.4076 42.928C76.4076 41.36 76.9756 40.136 78.1116 39.256C79.2476 38.36 80.7276 37.912 82.5516 37.912C84.4076 37.912 85.9036 38.36 87.0396 39.256C88.1756 40.136 88.7836 41.368 88.8636 42.952H84.4236C84.3916 42.408 84.1916 41.984 83.8236 41.68C83.4556 41.36 82.9836 41.2 82.4076 41.2C81.9116 41.2 81.5116 41.336 81.2076 41.608C80.9036 41.864 80.7516 42.24 80.7516 42.736C80.7516 43.28 81.0076 43.704 81.5196 44.008C82.0316 44.312 82.8316 44.64 83.9196 44.992C85.0076 45.36 85.8876 45.712 86.5596 46.048C87.2476 46.384 87.8396 46.872 88.3356 47.512C88.8316 48.152 89.0796 48.976 89.0796 49.984C89.0796 50.944 88.8316 51.816 88.3356 52.6C87.8556 53.384 87.1516 54.008 86.2236 54.472C85.2956 54.936 84.1996 55.168 82.9356 55.168ZM96.7151 41.296H101.875L106.747 46.6L101.875 51.904H96.7151L101.611 46.6L96.7151 41.296Z" fill="#4EA9BE"/>
</g>
<defs>
<linearGradient id="paint0_linear" x1="224.623" y1="247.189" x2="213.091" y2="402.709" gradientUnits="userSpaceOnUse">
<stop offset="0.01"/>
<stop offset="0.08" stop-opacity="0.69"/>
<stop offset="0.21" stop-opacity="0.32"/>
<stop offset="1" stop-opacity="0"/>
</linearGradient>
<linearGradient id="paint1_linear" x1="587.431" y1="45.0678" x2="1.75515" y2="336.876" gradientUnits="userSpaceOnUse">
<stop offset="0.01"/>
<stop offset="0.13" stop-opacity="0.69"/>
<stop offset="0.25" stop-opacity="0.32"/>
<stop offset="1" stop-opacity="0"/>
</linearGradient>
<linearGradient id="paint2_linear" x1="62479.2" y1="2924.33" x2="62422.6" y2="10555.7" gradientUnits="userSpaceOnUse">
<stop offset="0.01" stop-color="#86DCEF"/>
<stop offset="0.13" stop-opacity="0.69"/>
<stop offset="0.25" stop-opacity="0.32"/>
<stop offset="1" stop-opacity="0"/>
</linearGradient>
<linearGradient id="paint3_linear" x1="16845.5" y1="10721.8" x2="18565.1" y2="1881.81" gradientUnits="userSpaceOnUse">
<stop offset="0.01"/>
<stop offset="0.13" stop-opacity="0.69"/>
<stop offset="0.25" stop-opacity="0.32"/>
<stop offset="1" stop-opacity="0"/>
</linearGradient>
<linearGradient id="paint4_linear" x1="600.747" y1="461.08" x2="612.673" y2="506.511" gradientUnits="userSpaceOnUse">
<stop offset="0.01"/>
<stop offset="0.13" stop-opacity="0.69"/>
<stop offset="0.25" stop-opacity="0.32"/>
<stop offset="1" stop-opacity="0"/>
</linearGradient>
<clipPath id="clip0">
<rect width="459" height="389" fill="white"/>
</clipPath>
</defs>
</svg>
