<svg width="465" height="394" viewBox="0 0 465 394" fill="none" xmlns="http://www.w3.org/2000/svg">
<path opacity="0.18" d="M156.078 11.33C130.383 25.116 111.682 50.3331 103.346 78.2618C98.4208 94.7878 96.879 112.241 91.2689 128.539C75.2666 174.935 29.1723 205.118 9.51552 250.087C-1.43347 275.118 -3.33205 304.317 5.90393 330.005C15.1399 355.693 35.7531 377.514 61.4483 386.547C77.2365 392.113 94.281 392.941 110.969 393.469C142.374 394.468 173.907 394.582 204.756 389.016C219.459 386.376 233.934 382.437 248.766 380.725C277.459 377.4 306.751 382.452 335.273 377.871C355.13 374.645 373.944 366.825 391.931 357.805C405.421 351.041 418.697 343.534 429.831 333.259C459.281 306.258 470.187 262.46 462.278 223.3C454.37 184.139 429.446 149.732 398.198 124.829C384.422 113.911 369.433 104.663 355.001 94.6451C336.421 81.7331 318.772 67.5316 302.183 52.1456C262.513 15.3973 211.337 -18.2826 156.078 11.33Z" fill="#68E1FD"/>
<g clip-path="url(#clip0)">
<path d="M63.3286 271.238L54.2742 270.634L57.2923 284.216L67.5538 279.991L63.3286 271.238Z" fill="#FFB9B9"/>
<path d="M146.327 245.886L125.2 225.362L113.128 234.719L89.2844 263.391L92.0008 267.616L120.975 247.998L140.593 273.652L159.305 264.296L146.327 245.886Z" fill="#2F2E41"/>
<path opacity="0.1" d="M146.327 245.886L125.2 225.362L113.128 234.719L89.2844 263.391L92.0008 267.616L120.975 247.998L140.593 273.652L159.305 264.296L146.327 245.886Z" fill="black"/>
<path d="M148.138 259.467L145.422 261.58L123.389 254.035L118.259 251.922L107.997 254.035C107.997 254.035 107.997 245.584 117.655 245.886L127.615 248.3L139.386 249.206L148.138 259.467Z" fill="#FFB9B9"/>
<path d="M167.756 281.802L161.116 286.027H153.269L116.75 272.445L63.3286 282.103L61.8193 270.634L110.713 249.206L153.571 263.391L167.756 281.802Z" fill="#2F2E41"/>
<path d="M124.899 228.079L120.371 228.984L119.385 227.833C118.604 226.922 118.109 225.801 117.962 224.61C117.816 223.418 118.024 222.21 118.56 221.137V221.137L131.237 204.537C131.237 204.537 134.858 196.388 140.593 199.708C146.327 203.028 135.764 208.461 135.764 208.461L129.426 218.421L130.029 223.552L124.899 228.079Z" fill="#FFB9B9"/>
<path d="M153.571 208.461C160.072 208.461 165.342 203.191 165.342 196.69C165.342 190.189 160.072 184.919 153.571 184.919C147.07 184.919 141.8 190.189 141.8 196.69C141.8 203.191 147.07 208.461 153.571 208.461Z" fill="#FFB9B9"/>
<path d="M148.289 205.292L153.722 218.27L166.7 212.837C166.7 212.837 162.474 202.575 162.474 202.274C162.474 201.972 148.289 205.292 148.289 205.292Z" fill="#FFB9B9"/>
<path d="M184.027 243.686C184.027 250.789 182.907 257.849 180.71 264.604L179.829 267.315L175.603 286.631L171.076 287.838L167.756 283.613L161.116 278.784L156.287 270.936L152.146 264.037L150.854 261.882L146.327 239.246L129.124 229.588L123.389 228.682L124.597 225.362L129.728 218.421L134.858 217.817L136.367 216.61L137.575 217.214L142.404 214.497L143.913 215.101L152.738 215.922L158.098 214.799L165.806 210.661L168.963 211.177L179.829 220.232C182.606 227.739 184.028 235.681 184.027 243.686V243.686Z" fill="#50ACC1"/>
<path d="M57.0535 275.912C57.0535 275.912 59.7567 271.33 58.6149 270.795C57.4731 270.26 52.6241 268.128 52.6241 268.128L45.5131 265.771C45.5131 265.771 35.2523 250.522 35.0271 263.783C34.8018 277.044 42.4982 280.232 42.4982 280.232C42.4982 280.232 49.3624 295.004 53.2506 292.649C57.1389 290.293 61.0297 282.297 61.0297 282.297C61.0297 282.297 54.0179 278.527 57.0535 275.912Z" fill="#2F2E41"/>
<path opacity="0.1" d="M180.734 241.057L169.265 248.602L152.146 264.037L150.855 261.882L147.233 243.773H148.138L157.495 226.57L180.734 241.057Z" fill="black"/>
<path d="M157.495 224.759L148.138 241.962H144.818L142.706 247.998L137.877 249.206L150.855 263.391L169.265 246.791L180.734 239.246L157.495 224.759Z" fill="#50ACC1"/>
<path d="M144.416 187.938L143.14 188.429C142.944 188.296 142.776 188.125 142.647 187.927C142.518 187.728 142.429 187.506 142.387 187.273C142.344 187.04 142.349 186.801 142.4 186.569C142.451 186.338 142.548 186.119 142.685 185.926L140.328 185.816C141.841 183.801 143.765 182.13 145.972 180.914C148.179 179.698 150.618 178.965 153.13 178.762C155.642 178.56 158.167 178.893 160.541 179.74C162.914 180.587 165.08 181.928 166.896 183.674C167.003 183.305 168.173 184.024 168.651 184.753C168.811 184.152 169.908 187.058 170.296 189.113C170.475 188.429 171.166 189.534 170.561 190.593C170.944 190.537 171.117 191.518 170.821 192.064C171.24 191.867 171.169 193.038 170.715 193.82C171.313 193.767 165.995 202.02 163.843 206.843C163.217 203.97 162.515 200.946 160.499 198.806C160.156 198.443 159.781 198.111 159.406 197.781L157.38 195.992C155.024 193.913 152.881 191.346 149.743 190.569C147.586 190.035 146.222 189.914 147.397 187.484C146.335 187.927 145.344 188.586 144.272 188.997C144.287 188.658 144.436 188.278 144.416 187.938Z" fill="#2F2E41"/>
<path d="M159.456 200.161C160.623 200.161 161.569 199.215 161.569 198.048C161.569 196.881 160.623 195.936 159.456 195.936C158.289 195.936 157.343 196.881 157.343 198.048C157.343 199.215 158.289 200.161 159.456 200.161Z" fill="#FFB9B9"/>
<path d="M110.334 150.563H100.119V160.778H110.334V150.563Z" fill="#5ECBE4"/>
<path d="M116.536 154.941H104.132V142.537H116.536V154.941ZM104.672 154.402H115.997V143.076H104.672V154.402Z" fill="#3F3D56"/>
<path d="M64.694 191.956L61.8893 182.134L52.0671 184.939L54.8718 194.761L64.694 191.956Z" fill="#5ECBE4"/>
<path d="M62.1874 199.122L58.7816 187.195L70.7086 183.789L74.1144 195.716L62.1874 199.122ZM59.4483 187.566L62.5579 198.455L73.4477 195.346L70.3381 184.456L59.4483 187.566Z" fill="#3F3D56"/>
<path d="M62.1555 146.21L69.1301 138.747L61.6671 131.772L54.6925 139.235L62.1555 146.21Z" fill="#5ECBE4"/>
<path d="M54.7224 147.751L63.1917 138.689L72.2539 147.158L63.7846 156.221L54.7224 147.751ZM63.2174 139.451L55.4847 147.726L63.7589 155.458L71.4916 147.184L63.2174 139.451Z" fill="#3F3D56"/>
<path d="M409.407 130.736H314.493V128.78H271.455V130.736H176.151C175.307 130.736 174.473 130.902 173.694 131.225C172.915 131.547 172.207 132.02 171.611 132.616C171.015 133.213 170.542 133.92 170.219 134.699C169.896 135.478 169.73 136.313 169.73 137.156V267.122C169.73 267.965 169.896 268.8 170.219 269.579C170.542 270.358 171.015 271.066 171.611 271.662C172.207 272.258 172.915 272.731 173.694 273.054C174.473 273.376 175.307 273.543 176.151 273.543H409.407C411.11 273.543 412.743 272.866 413.947 271.662C415.151 270.458 415.827 268.825 415.827 267.122V137.156C415.827 136.313 415.661 135.478 415.338 134.699C415.016 133.92 414.543 133.213 413.947 132.616C413.35 132.02 412.643 131.547 411.864 131.225C411.085 130.902 410.25 130.736 409.407 130.736V130.736Z" fill="#3F3D56"/>
<path d="M407.219 142.082H178.338V271.195H407.219V142.082Z" fill="#68E1FD"/>
<path d="M292.583 138.561C293.88 138.561 294.931 137.51 294.931 136.213C294.931 134.917 293.88 133.866 292.583 133.866C291.287 133.866 290.236 134.917 290.236 136.213C290.236 137.51 291.287 138.561 292.583 138.561Z" fill="#6C63FF"/>
<path opacity="0.1" d="M341.763 271.195H178.338V142.082L341.763 271.195Z" fill="black"/>
<path d="M214.151 261.533C226.302 261.533 236.152 251.683 236.152 239.533C236.152 227.382 226.302 217.532 214.151 217.532C202 217.532 192.15 227.382 192.15 239.533C192.15 251.683 202 261.533 214.151 261.533Z" fill="#F2F2F2"/>
<path d="M219.049 256.068C213.636 256.068 208.345 254.463 203.844 251.456C199.344 248.449 195.836 244.175 193.765 239.174C191.694 234.174 191.152 228.671 192.208 223.363C193.264 218.054 195.87 213.178 199.697 209.35C203.525 205.523 208.401 202.917 213.71 201.861C219.018 200.805 224.521 201.347 229.521 203.418C234.522 205.489 238.796 208.997 241.803 213.497C244.81 217.998 246.415 223.289 246.415 228.702C246.407 235.957 243.521 242.913 238.391 248.044C233.26 253.174 226.304 256.06 219.049 256.068ZM219.049 201.692C213.707 201.692 208.485 203.277 204.043 206.244C199.601 209.212 196.14 213.43 194.095 218.366C192.051 223.301 191.516 228.732 192.558 233.971C193.601 239.21 196.173 244.023 199.95 247.8C203.728 251.577 208.54 254.15 213.779 255.192C219.019 256.234 224.449 255.699 229.385 253.655C234.32 251.611 238.538 248.149 241.506 243.707C244.474 239.265 246.058 234.044 246.058 228.702C246.05 221.541 243.201 214.676 238.138 209.612C233.075 204.549 226.209 201.701 219.049 201.692V201.692Z" fill="#3F3D56"/>
<path d="M367.367 211.714H345.987V216.181H367.367V211.714Z" fill="#3F3D56"/>
<path d="M393.215 176.931H320.14V178.846H393.215V176.931Z" fill="#3F3D56"/>
<path d="M393.215 182.994H320.14V184.909H393.215V182.994Z" fill="#3F3D56"/>
<path d="M393.215 189.057H320.14V190.972H393.215V189.057Z" fill="#3F3D56"/>
<path d="M393.215 195.12H320.14V197.035H393.215V195.12Z" fill="#3F3D56"/>
<path d="M393.215 201.183H320.14V203.098H393.215V201.183Z" fill="#3F3D56"/>
<path d="M393.215 144.702H384.28V153.637H393.215V144.702Z" fill="#F2F2F2"/>
<path d="M397.363 157.785H386.514V146.936H397.363V157.785ZM386.985 157.313H396.892V147.407H386.985V157.313Z" fill="#3F3D56"/>
<path d="M422.254 268.847H399.916V267.238C399.916 267.196 399.908 267.155 399.892 267.116C399.876 267.077 399.852 267.042 399.823 267.012C399.793 266.983 399.758 266.959 399.719 266.943C399.68 266.927 399.639 266.919 399.597 266.919H391.939C391.897 266.919 391.855 266.927 391.816 266.943C391.778 266.959 391.743 266.983 391.713 267.012C391.683 267.042 391.66 267.077 391.644 267.116C391.628 267.155 391.619 267.196 391.619 267.238V268.847H386.833V267.238C386.833 267.196 386.825 267.155 386.809 267.116C386.792 267.077 386.769 267.042 386.739 267.012C386.71 266.983 386.675 266.959 386.636 266.943C386.597 266.927 386.556 266.919 386.514 266.919H378.855C378.813 266.919 378.772 266.927 378.733 266.943C378.694 266.959 378.659 266.983 378.63 267.012C378.6 267.042 378.576 267.077 378.56 267.116C378.544 267.155 378.536 267.196 378.536 267.238V268.847H373.75V267.238C373.75 267.196 373.741 267.155 373.725 267.116C373.709 267.077 373.686 267.042 373.656 267.012C373.626 266.983 373.591 266.959 373.553 266.943C373.514 266.927 373.472 266.919 373.43 266.919H365.772C365.73 266.919 365.688 266.927 365.65 266.943C365.611 266.959 365.576 266.983 365.546 267.012C365.517 267.042 365.493 267.077 365.477 267.116C365.461 267.155 365.453 267.196 365.453 267.238V268.847H360.666V267.238C360.666 267.196 360.658 267.155 360.642 267.116C360.626 267.077 360.602 267.042 360.573 267.012C360.543 266.983 360.508 266.959 360.469 266.943C360.431 266.927 360.389 266.919 360.347 266.919H352.689C352.647 266.919 352.605 266.927 352.566 266.943C352.528 266.959 352.493 266.983 352.463 267.012C352.433 267.042 352.41 267.077 352.394 267.116C352.378 267.155 352.369 267.196 352.369 267.238V268.847H347.583V267.238C347.583 267.196 347.575 267.155 347.559 267.116C347.543 267.077 347.519 267.042 347.489 267.012C347.46 266.983 347.425 266.959 347.386 266.943C347.347 266.927 347.306 266.919 347.264 266.919H339.605C339.563 266.919 339.522 266.927 339.483 266.943C339.444 266.959 339.409 266.983 339.38 267.012C339.35 267.042 339.326 267.077 339.31 267.116C339.294 267.155 339.286 267.196 339.286 267.238V268.847H334.5V267.238C334.5 267.196 334.491 267.155 334.475 267.116C334.459 267.077 334.436 267.042 334.406 267.012C334.376 266.983 334.341 266.959 334.303 266.943C334.264 266.927 334.222 266.919 334.18 266.919H326.522C326.48 266.919 326.439 266.927 326.4 266.943C326.361 266.959 326.326 266.983 326.296 267.012C326.267 267.042 326.243 267.077 326.227 267.116C326.211 267.155 326.203 267.196 326.203 267.238V268.847H321.416V267.238C321.416 267.196 321.408 267.155 321.392 267.116C321.376 267.077 321.352 267.042 321.323 267.012C321.293 266.983 321.258 266.959 321.219 266.943C321.181 266.927 321.139 266.919 321.097 266.919H261.105C261.063 266.919 261.022 266.927 260.983 266.943C260.945 266.959 260.909 266.983 260.88 267.012C260.85 267.042 260.827 267.077 260.811 267.116C260.795 267.155 260.786 267.196 260.786 267.238V268.847H256V267.238C256 267.196 255.991 267.155 255.975 267.116C255.959 267.077 255.936 267.042 255.906 267.012C255.877 266.983 255.841 266.959 255.803 266.943C255.764 266.927 255.723 266.919 255.681 266.919H248.022C247.98 266.919 247.939 266.927 247.9 266.943C247.861 266.959 247.826 266.983 247.796 267.012C247.767 267.042 247.743 267.077 247.727 267.116C247.711 267.155 247.703 267.196 247.703 267.238V268.847H242.916V267.238C242.916 267.196 242.908 267.155 242.892 267.116C242.876 267.077 242.853 267.042 242.823 267.012C242.793 266.983 242.758 266.959 242.719 266.943C242.681 266.927 242.639 266.919 242.597 266.919H234.939C234.897 266.919 234.855 266.927 234.817 266.943C234.778 266.959 234.743 266.983 234.713 267.012C234.683 267.042 234.66 267.077 234.644 267.116C234.628 267.155 234.62 267.196 234.62 267.238V268.847H229.833V267.238C229.833 267.196 229.825 267.155 229.809 267.116C229.793 267.077 229.769 267.042 229.74 267.012C229.71 266.983 229.675 266.959 229.636 266.943C229.597 266.927 229.556 266.919 229.514 266.919H221.855C221.814 266.919 221.772 266.927 221.733 266.943C221.695 266.959 221.659 266.983 221.63 267.012C221.6 267.042 221.577 267.077 221.561 267.116C221.545 267.155 221.536 267.196 221.536 267.238V268.847H216.75V267.238C216.75 267.196 216.742 267.155 216.725 267.116C216.709 267.077 216.686 267.042 216.656 267.012C216.627 266.983 216.591 266.959 216.553 266.943C216.514 266.927 216.473 266.919 216.431 266.919H208.772C208.73 266.919 208.689 266.927 208.65 266.943C208.611 266.959 208.576 266.983 208.546 267.012C208.517 267.042 208.493 267.077 208.477 267.116C208.461 267.155 208.453 267.196 208.453 267.238V268.847H203.666V267.238C203.666 267.196 203.658 267.155 203.642 267.116C203.626 267.077 203.603 267.042 203.573 267.012C203.543 266.983 203.508 266.959 203.469 266.943C203.431 266.927 203.389 266.919 203.347 266.919H195.689C195.647 266.919 195.605 266.927 195.567 266.943C195.528 266.959 195.493 266.983 195.463 267.012C195.434 267.042 195.41 267.077 195.394 267.116C195.378 267.155 195.37 267.196 195.37 267.238V268.847H190.583V267.238C190.583 267.196 190.575 267.155 190.559 267.116C190.543 267.077 190.519 267.042 190.49 267.012C190.46 266.983 190.425 266.959 190.386 266.943C190.347 266.927 190.306 266.919 190.264 266.919H182.606C182.564 266.919 182.522 266.927 182.483 266.943C182.445 266.959 182.409 266.983 182.38 267.012C182.35 267.042 182.327 267.077 182.311 267.116C182.295 267.155 182.286 267.196 182.286 267.238V268.847H167.608C165.576 268.847 163.628 269.654 162.192 271.091C160.756 272.527 159.949 274.475 159.949 276.506V279.969C159.949 282 160.756 283.948 162.192 285.384C163.628 286.821 165.576 287.627 167.608 287.627H422.254C424.285 287.627 426.233 286.821 427.669 285.384C429.105 283.948 429.912 282 429.912 279.969V276.506C429.912 274.475 429.105 272.527 427.669 271.091C426.233 269.654 424.285 268.847 422.254 268.847V268.847Z" fill="#3F3D56"/>
</g>
<defs>
<clipPath id="clip0">
<rect width="394.89" height="164.123" fill="white" transform="translate(35.0222 128.78)"/>
</clipPath>
</defs>
</svg>
