<svg width="602" height="370" viewBox="0 0 602 370" fill="none" xmlns="http://www.w3.org/2000/svg">
<path opacity="0.18" d="M201.976 10.6399C168.725 23.5861 144.525 47.2671 133.737 73.4946C127.364 89.0139 125.369 105.404 118.109 120.709C97.4006 164.279 37.7512 192.624 12.3138 234.853C-1.85501 258.36 -4.31192 285.78 7.64013 309.903C19.5922 334.027 46.2672 354.518 79.5187 363.001C99.9499 368.228 122.007 369.005 143.602 369.501C184.242 370.439 225.049 370.547 264.969 365.32C283.997 362.841 302.728 359.142 321.922 357.533C359.053 354.411 396.959 359.155 433.868 354.853C459.564 351.824 483.912 344.48 507.188 336.01C524.645 329.657 541.825 322.608 556.234 312.959C594.344 287.603 608.457 246.472 598.223 209.698C587.989 172.923 555.735 140.611 515.298 117.225C497.471 106.972 478.074 98.288 459.398 88.8799C435.354 76.7545 412.514 63.418 391.048 48.9692C339.711 14.4594 273.486 -17.1689 201.976 10.6399Z" fill="#68E1FD"/>
<g clip-path="url(#clip0)">
<path d="M303.723 127.976H299.831V130.572H303.723V127.976Z" fill="#B0BEC5"/>
<path d="M308.91 127.976H305.018V130.572H308.91V127.976Z" fill="#B0BEC5"/>
<path d="M314.102 127.976H310.21V130.572H314.102V127.976Z" fill="#B0BEC5"/>
<path d="M319.29 127.976H315.398V130.572H319.29V127.976Z" fill="#B0BEC5"/>
<path d="M324.481 127.976H320.59V130.572H324.481V127.976Z" fill="#B0BEC5"/>
<path d="M329.673 127.976H325.781V130.572H329.673V127.976Z" fill="#B0BEC5"/>
<path d="M334.861 127.976H330.969V130.572H334.861V127.976Z" fill="#B0BEC5"/>
<path d="M340.052 127.976H336.161V130.572H340.052V127.976Z" fill="#B0BEC5"/>
<path d="M345.24 127.976H341.348V130.572H345.24V127.976Z" fill="#B0BEC5"/>
<path d="M350.432 127.976H346.54V130.572H350.432V127.976Z" fill="#B0BEC5"/>
<path d="M435.643 129.778H268.195V316.668H435.643V129.778Z" fill="url(#paint0_linear)"/>
<path d="M432.879 254.556H270.964V312.599H432.879V254.556Z" fill="#ECEFF1"/>
<path d="M290.525 268.326H284.251V298.065H290.525V268.326Z" fill="#64FFDA"/>
<g opacity="0.7">
<path opacity="0.7" d="M302.912 268.326H296.638V298.065H302.912V268.326Z" fill="#64FFDA"/>
</g>
<g opacity="0.6">
<path opacity="0.6" d="M315.299 268.326H309.025V298.065H315.299V268.326Z" fill="#64FFDA"/>
</g>
<g opacity="0.5">
<path opacity="0.5" d="M327.686 268.326H321.412V298.065H327.686V268.326Z" fill="#64FFDA"/>
</g>
<g opacity="0.5">
<path opacity="0.5" d="M340.073 268.326H333.799V298.065H340.073V268.326Z" fill="#64FFDA"/>
</g>
<g opacity="0.4">
<path opacity="0.4" d="M352.46 268.326H346.186V298.065H352.46V268.326Z" fill="#64FFDA"/>
</g>
<g opacity="0.3">
<path opacity="0.3" d="M364.843 268.326H358.569V298.065H364.843V268.326Z" fill="#64FFDA"/>
</g>
<path d="M409.952 298.143C418.313 298.143 425.091 291.365 425.091 283.004C425.091 274.643 418.313 267.865 409.952 267.865C401.591 267.865 394.813 274.643 394.813 283.004C394.813 291.365 401.591 298.143 409.952 298.143Z" fill="#6C63FF"/>
<path d="M432.879 194.255H270.964V252.298H432.879V194.255Z" fill="#ECEFF1"/>
<path d="M290.525 208.024H284.251V237.764H290.525V208.024Z" fill="#64FFDA"/>
<g opacity="0.7">
<path opacity="0.7" d="M302.912 208.024H296.638V237.764H302.912V208.024Z" fill="#64FFDA"/>
</g>
<g opacity="0.6">
<path opacity="0.6" d="M315.299 208.024H309.025V237.764H315.299V208.024Z" fill="#64FFDA"/>
</g>
<g opacity="0.5">
<path opacity="0.5" d="M327.686 208.024H321.412V237.764H327.686V208.024Z" fill="#64FFDA"/>
</g>
<g opacity="0.5">
<path opacity="0.5" d="M340.073 208.024H333.799V237.764H340.073V208.024Z" fill="#64FFDA"/>
</g>
<g opacity="0.4">
<path opacity="0.4" d="M352.46 208.024H346.186V237.764H352.46V208.024Z" fill="#64FFDA"/>
</g>
<g opacity="0.3">
<path opacity="0.3" d="M364.843 208.024H358.569V237.764H364.843V208.024Z" fill="#64FFDA"/>
</g>
<path d="M409.952 237.846C418.313 237.846 425.091 231.068 425.091 222.707C425.091 214.346 418.313 207.568 409.952 207.568C401.591 207.568 394.813 214.346 394.813 222.707C394.813 231.068 401.591 237.846 409.952 237.846Z" fill="#6C63FF"/>
<path d="M432.879 133.958H270.964V192.001H432.879V133.958Z" fill="#ECEFF1"/>
<path d="M290.525 147.723H284.251V177.462H290.525V147.723Z" fill="#64FFDA"/>
<g opacity="0.7">
<path opacity="0.7" d="M302.912 147.723H296.638V177.462H302.912V147.723Z" fill="#64FFDA"/>
</g>
<g opacity="0.6">
<path opacity="0.6" d="M315.299 147.723H309.025V177.462H315.299V147.723Z" fill="#64FFDA"/>
</g>
<g opacity="0.5">
<path opacity="0.5" d="M327.686 147.723H321.412V177.462H327.686V147.723Z" fill="#64FFDA"/>
</g>
<g opacity="0.5">
<path opacity="0.5" d="M340.073 147.723H333.799V177.462H340.073V147.723Z" fill="#64FFDA"/>
</g>
<g opacity="0.4">
<path opacity="0.4" d="M352.46 147.723H346.186V177.462H352.46V147.723Z" fill="#64FFDA"/>
</g>
<g opacity="0.3">
<path opacity="0.3" d="M364.843 147.723H358.569V177.462H364.843V147.723Z" fill="#64FFDA"/>
</g>
<path d="M409.952 178.725C418.965 178.725 426.272 171.418 426.272 162.405C426.272 153.392 418.965 146.085 409.952 146.085C400.939 146.085 393.632 153.392 393.632 162.405C393.632 171.418 400.939 178.725 409.952 178.725Z" fill="url(#paint1_linear)"/>
<path d="M409.952 239.43C418.965 239.43 426.272 232.123 426.272 223.11C426.272 214.097 418.965 206.79 409.952 206.79C400.939 206.79 393.632 214.097 393.632 223.11C393.632 232.123 400.939 239.43 409.952 239.43Z" fill="url(#paint2_linear)"/>
<path d="M409.952 299.727C418.965 299.727 426.272 292.42 426.272 283.407C426.272 274.394 418.965 267.087 409.952 267.087C400.939 267.087 393.632 274.394 393.632 283.407C393.632 292.42 400.939 299.727 409.952 299.727Z" fill="url(#paint3_linear)"/>
<path d="M409.952 177.544C418.313 177.544 425.091 170.766 425.091 162.405C425.091 154.044 418.313 147.266 409.952 147.266C401.591 147.266 394.813 154.044 394.813 162.405C394.813 170.766 401.591 177.544 409.952 177.544Z" fill="#6C63FF"/>
<path d="M356.919 136.627H297.12C296.574 136.627 296.051 136.411 295.665 136.025C295.28 135.639 295.063 135.116 295.063 134.571V131.312C295.063 130.767 295.28 130.244 295.665 129.858C296.051 129.472 296.574 129.255 297.12 129.255H356.919V136.627Z" fill="url(#paint4_linear)"/>
<path d="M356.919 135.76H298.202C297.656 135.76 297.133 135.543 296.747 135.157C296.361 134.771 296.145 134.248 296.145 133.703V131.74C296.145 131.195 296.361 130.672 296.747 130.286C297.133 129.9 297.656 129.683 298.202 129.683H356.919V135.76Z" fill="#B0BEC5"/>
<path d="M204.532 96.5376L247.728 134.748L297.918 124.146L294.03 112.837L255.137 117.428L216.224 83.2826C215.293 82.4653 214.2 81.8529 213.017 81.485C211.834 81.1171 210.587 81.0019 209.357 81.147C208.126 81.2921 206.94 81.6941 205.875 82.3271C204.81 82.96 203.89 83.8098 203.175 84.8212V84.8212C201.919 86.5988 201.364 88.7771 201.614 90.9389C201.865 93.1007 202.904 95.0941 204.532 96.5376V96.5376Z" fill="url(#paint5_linear)"/>
<path d="M297.893 124.146C297.893 124.146 310.696 124.5 315.427 117.432C320.158 110.364 294.006 112.837 294.006 112.837L297.893 124.146Z" fill="url(#paint6_linear)"/>
<path d="M198.867 71.6321C211.164 71.6321 221.132 61.664 221.132 49.3677C221.132 37.0714 211.164 27.1033 198.867 27.1033C186.571 27.1033 176.603 37.0714 176.603 49.3677C176.603 61.664 186.571 71.6321 198.867 71.6321Z" fill="url(#paint7_linear)"/>
<path d="M189.681 73.7506C189.681 73.7506 161.09 93.0036 168.351 152.524C169.235 159.714 168.61 167.009 166.516 173.945L162.813 186.122C162.813 186.122 225.715 187.537 227.48 186.122C228.574 185.246 227.722 162.817 224.653 131.703C222.773 112.643 228.669 86.1293 208.399 71.6401L189.681 73.7506Z" fill="url(#paint8_linear)"/>
<path d="M227.488 185.418L255.405 244.432L258.585 304.504H238.797L230.314 242.31L213.353 212.274L196.391 304.504H176.603L182.609 235.95L162.821 186.126L227.488 185.418Z" fill="url(#paint9_linear)"/>
<path d="M258.589 304.503L264.595 313.69C264.595 313.69 284.753 321.465 275.904 326.41H237.386V304.503H258.589Z" fill="url(#paint10_linear)"/>
<path d="M196.041 304.503L202.048 313.69C202.048 313.69 222.206 321.465 213.357 326.41H174.838V304.503H196.041Z" fill="url(#paint11_linear)"/>
<g opacity="0.2">
<path opacity="0.2" d="M199.221 26.7533C195.377 26.7455 191.598 27.7379 188.254 29.633C193.486 27.3543 199.393 27.1719 204.755 29.1236C210.118 31.0752 214.526 35.0118 217.069 40.1203C219.613 45.2288 220.097 51.119 218.423 56.5744C216.748 62.0297 213.042 66.6336 208.07 69.435C212.768 67.3997 216.621 63.8073 218.98 59.263C221.339 54.7187 222.06 49.5003 221.021 44.4868C219.982 39.4733 217.246 34.9712 213.275 31.7388C209.305 28.5064 204.341 26.7414 199.221 26.741V26.7533Z" fill="url(#paint12_linear)"/>
</g>
<path d="M225.933 12.9348L219.737 22.3968C217.512 25.799 214.278 29.6619 210.275 28.8721C208.416 28.5059 206.927 27.1648 205.441 25.9923C200.583 22.1335 194.573 19.5171 188.369 19.48C182.165 19.443 175.817 22.2363 172.325 27.3582C169.737 31.1388 168.844 35.804 168.334 40.354C167.31 49.4539 168.334 60.1953 175.932 65.3048C176.546 65.7937 177.304 66.067 178.088 66.0823C178.911 66.0288 179.577 65.5064 180.194 64.988C189.706 57.0194 195.005 44.0606 206.458 38.5891C211.514 36.1784 218.869 36.1578 222.946 32.0603C228.952 26.0376 222.304 18.4762 225.933 12.9348Z" fill="url(#paint13_linear)"/>
<g opacity="0.2">
<path opacity="0.2" d="M202.969 25.9922C204.454 27.1729 205.939 28.514 207.803 28.8719C208.56 29.022 209.34 29.0066 210.09 28.8267C208.317 28.4153 206.881 27.1194 205.446 25.984C200.587 22.1251 194.577 19.5087 188.373 19.4717C187.937 19.4717 187.505 19.4717 187.069 19.5087C192.869 19.8502 198.444 22.3967 202.969 25.9922Z" fill="url(#paint14_linear)"/>
<path opacity="0.2" d="M225.933 12.9348L222.358 18.4022C222.699 22.8987 224.674 27.8642 220.486 32.0603C216.405 36.1742 209.049 36.1742 203.998 38.5891C192.532 44.0606 187.242 57.0235 177.734 64.988C177.408 65.2734 177.056 65.5268 176.681 65.745C177.115 65.9826 177.606 66.0992 178.1 66.0823C178.923 66.0288 179.59 65.5064 180.207 64.988C189.718 57.0194 195.017 44.0606 206.47 38.5891C211.526 36.1784 218.882 36.1578 222.958 32.0603C228.952 26.0376 222.304 18.4762 225.933 12.9348Z" fill="url(#paint15_linear)"/>
</g>
<g opacity="0.2">
<path opacity="0.2" d="M224.666 131.707C222.786 112.648 228.681 86.1335 208.412 71.6443L204.121 72.1297C223.6 86.7259 217.861 112.857 219.721 131.715C222.79 162.829 223.645 185.258 222.547 186.134C222.008 186.546 215.784 186.735 207.396 186.76C218.186 186.788 226.854 186.648 227.496 186.134C228.586 185.25 227.731 162.821 224.666 131.707Z" fill="url(#paint16_linear)"/>
</g>
<path d="M192.084 104.095L235.28 142.305L285.469 131.703L281.545 120.398L242.672 124.993L203.759 90.848C202.828 90.0308 201.735 89.4183 200.552 89.0504C199.369 88.6825 198.122 88.5674 196.892 88.7124C195.661 88.8575 194.475 89.2595 193.41 89.8925C192.345 90.5255 191.425 91.3752 190.71 92.3866V92.3866C189.458 94.1655 188.907 96.3431 189.16 98.5031C189.414 100.663 190.455 102.654 192.084 104.095V104.095Z" fill="url(#paint17_linear)"/>
<path d="M285.445 131.707C285.445 131.707 298.247 132.061 302.978 124.993C307.709 117.926 281.545 120.398 281.545 120.398L285.445 131.707Z" fill="url(#paint18_linear)"/>
<path d="M199.982 62.0918H197.744C193.093 62.0918 189.323 65.8621 189.323 70.513V72.7509C189.323 77.4018 193.093 81.1721 197.744 81.1721H199.982C204.633 81.1721 208.403 77.4018 208.403 72.7509V70.513C208.403 65.8621 204.633 62.0918 199.982 62.0918Z" fill="url(#paint19_linear)"/>
<g opacity="0.2">
<path opacity="0.2" d="M209.465 212.274L192.503 304.503H196.391L212.398 217.466L209.465 212.274Z" fill="url(#paint20_linear)"/>
<path opacity="0.2" d="M255.405 244.432L227.488 185.418L223.621 185.46L251.517 244.432L254.697 304.504H258.585L255.405 244.432Z" fill="url(#paint21_linear)"/>
</g>
<g opacity="0.2">
<path opacity="0.2" d="M264.595 313.694L258.589 304.508H256.82L262.826 313.694C262.826 313.694 282.972 321.477 274.14 326.414H275.904C284.737 321.477 264.595 313.694 264.595 313.694Z" fill="url(#paint22_linear)"/>
</g>
<g opacity="0.2">
<path opacity="0.2" d="M203.816 313.694L197.81 304.508H196.045L202.052 313.694C202.052 313.694 222.21 321.469 213.361 326.414H215.126C223.95 321.477 203.816 313.694 203.816 313.694Z" fill="url(#paint23_linear)"/>
</g>
<g opacity="0.2">
<path opacity="0.2" d="M287.962 122.233L287.209 120.044L251.151 124.306L287.962 122.233Z" fill="url(#paint24_linear)"/>
</g>
<path d="M180.581 103.679L192.59 80.9993L212.6 88.5606L192.59 117.465L180.581 103.679Z" fill="url(#paint25_linear)"/>
<path d="M205.491 98.541L247.49 135.706L296.293 125.397L292.512 114.4L254.705 118.868L216.858 85.6439C215.952 84.8491 214.889 84.2535 213.739 83.8957C212.588 83.538 211.375 83.4261 210.178 83.5673C208.982 83.7085 207.828 84.0996 206.792 84.7153C205.757 85.3311 204.862 86.1576 204.166 87.1414V87.1414C202.944 88.8711 202.404 90.9909 202.648 93.0945C202.893 95.1982 203.905 97.1375 205.491 98.541V98.541Z" fill="#CA7070"/>
<path d="M296.293 125.392C296.293 125.392 308.746 125.738 313.345 118.864C317.944 111.989 292.512 114.396 292.512 114.396L296.293 125.392Z" fill="#CA7070"/>
<path d="M199.978 74.3183C211.936 74.3183 221.63 64.6246 221.63 52.6668C221.63 40.7091 211.936 31.0154 199.978 31.0154C188.02 31.0154 178.327 40.7091 178.327 52.6668C178.327 64.6246 188.02 74.3183 199.978 74.3183Z" fill="#CA7070"/>
<path d="M191.039 76.3793C191.039 76.3793 163.229 95.1058 170.292 152.997C171.152 159.991 170.544 167.088 168.507 173.833L164.92 185.677C164.92 185.677 226.097 187.051 227.817 185.677C228.882 184.826 228.051 163.01 225.069 132.748C223.242 114.211 228.973 88.4207 209.259 74.3306L191.039 76.3793Z" fill="#263238"/>
<path d="M227.817 184.986L254.969 242.383L258.058 300.809H238.813L230.565 240.322L214.068 211.105L197.572 300.809H178.323L184.164 234.135L164.92 185.673L227.817 184.986Z" fill="#5CAADE"/>
<path d="M258.062 300.809L263.904 309.744C263.904 309.744 283.495 317.306 274.901 322.119H237.439V300.809H258.062Z" fill="#263238"/>
<path d="M197.21 300.809L203.051 309.744C203.051 309.744 222.642 317.306 214.048 322.119H176.607V300.809H197.21Z" fill="#263238"/>
<path opacity="0.2" d="M200.324 30.6698C196.584 30.666 192.908 31.6358 189.656 33.4837C194.734 31.3216 200.446 31.1803 205.625 33.0885C210.803 34.9968 215.058 38.8106 217.518 43.7506C219.979 48.6906 220.461 54.3839 218.864 59.6669C217.268 64.95 213.715 69.4241 208.93 72.1749C213.497 70.1935 217.241 66.6992 219.533 62.2804C221.825 57.8616 222.525 52.788 221.515 47.9137C220.505 43.0394 217.846 38.6619 213.986 35.5182C210.127 32.3745 205.302 30.6565 200.324 30.6533V30.6698Z" fill="white"/>
<path d="M226.299 17.2297L220.276 26.4408C218.112 29.7319 214.969 33.5043 211.09 32.7391C209.28 32.3812 207.836 31.0936 206.392 29.9293C201.661 26.1775 195.819 23.631 189.805 23.5939C183.79 23.5569 177.599 26.2762 174.172 31.254C171.658 34.9277 170.79 39.4818 170.288 43.896C169.293 52.745 170.288 63.1943 177.693 68.1681C178.29 68.6417 179.026 68.9062 179.787 68.9209C180.569 68.8674 181.235 68.3614 181.844 67.8554C191.092 60.1089 196.243 47.4998 207.391 42.1805C212.308 39.8356 219.462 39.8151 223.436 35.8328C229.24 29.9746 222.773 22.6189 226.299 17.2297Z" fill="#263238"/>
<g opacity="0.2">
<path opacity="0.2" d="M203.981 29.9294C205.425 31.0772 206.861 32.3977 208.679 32.7392C209.415 32.8856 210.174 32.8716 210.905 32.6981C209.181 32.2867 207.782 31.0525 206.379 29.9335C201.661 26.1775 195.819 23.631 189.805 23.594C189.393 23.594 188.961 23.594 188.537 23.631C194.145 23.956 199.554 26.412 203.981 29.9294Z" fill="white"/>
<path opacity="0.2" d="M226.299 17.2297L222.819 22.549C223.148 26.9221 225.073 31.7395 220.996 35.8328C217.026 39.8151 209.889 39.8356 204.952 42.1805C193.799 47.4998 188.657 60.1089 179.405 67.8554C179.088 68.1331 178.744 68.3797 178.38 68.5918C178.802 68.823 179.278 68.9367 179.758 68.9209C180.54 68.8674 181.206 68.3614 181.815 67.8554C191.063 60.1089 196.214 47.4998 207.363 42.1805C212.279 39.8356 219.433 39.8151 223.407 35.8328C229.24 29.9746 222.773 22.6189 226.299 17.2297Z" fill="white"/>
</g>
<path opacity="0.2" d="M225.069 132.744C223.242 114.207 228.973 88.4165 209.259 74.3264L205.088 74.7995C224.032 88.9966 218.45 114.421 220.26 132.756C223.242 163.018 224.073 184.834 223.008 185.686C222.485 186.097 216.426 186.27 208.272 186.294C218.771 186.323 227.196 186.183 227.821 185.686C228.887 184.822 228.064 163.01 225.069 132.744Z" fill="white"/>
<path d="M193.38 105.909L235.378 143.058L284.182 132.748L280.401 121.752L242.594 126.219L204.746 92.9955C203.841 92.2007 202.778 91.6051 201.627 91.2473C200.477 90.8896 199.264 90.7777 198.067 90.9189C196.871 91.06 195.717 91.4512 194.681 92.0669C193.645 92.6826 192.751 93.5092 192.055 94.4929V94.4929C190.828 96.224 190.285 98.3474 190.53 100.455C190.774 102.562 191.789 104.505 193.38 105.909V105.909Z" fill="#CA7070"/>
<path d="M284.182 132.744C284.182 132.744 296.634 133.09 301.234 126.215C305.833 119.341 280.401 121.748 280.401 121.748L284.182 132.744Z" fill="#CA7070"/>
<path d="M200.834 65.0376H199.118C194.468 65.0376 190.697 68.8079 190.697 73.4588V75.1742C190.697 79.8251 194.468 83.5954 199.118 83.5954H200.834C205.485 83.5954 209.255 79.8251 209.255 75.1742V73.4588C209.255 68.8079 205.485 65.0376 200.834 65.0376Z" fill="#CA7070"/>
<g opacity="0.2">
<path opacity="0.2" d="M210.288 211.105L193.791 300.809H197.572L213.139 216.157L210.288 211.105Z" fill="white"/>
<path opacity="0.2" d="M254.969 242.383L227.817 184.986L224.053 185.027L251.188 242.383L254.278 300.809H258.058L254.969 242.383Z" fill="white"/>
</g>
<path opacity="0.2" d="M263.904 309.749L258.062 300.813H256.343L262.185 309.749C262.185 309.749 281.775 317.31 273.181 322.123H274.901C283.495 317.31 263.904 309.749 263.904 309.749Z" fill="white"/>
<path opacity="0.2" d="M204.791 309.749L198.95 300.813H197.21L203.051 309.749C203.051 309.749 222.642 317.31 214.048 322.123H215.767C224.361 317.31 204.791 309.749 204.791 309.749Z" fill="white"/>
<path opacity="0.2" d="M286.629 123.533L285.901 121.406L250.83 125.549L286.629 123.533Z" fill="white"/>
<path d="M182.194 105.485L193.869 83.4307L213.332 90.7822L193.869 118.892L182.194 105.485Z" fill="#263238"/>
<path d="M352.814 130.329L388.193 82.221C388.354 82.003 388.555 81.8188 388.787 81.6788C389.018 81.5389 389.275 81.446 389.543 81.4055C389.81 81.365 390.083 81.3777 390.346 81.4428C390.608 81.5079 390.855 81.6242 391.073 81.7849L392.719 82.9985C392.937 83.1588 393.121 83.3604 393.261 83.592C393.401 83.8235 393.494 84.0804 393.534 84.3479C393.575 84.6154 393.562 84.8883 393.497 85.1509C393.432 85.4135 393.315 85.6607 393.155 85.8783L357.775 133.986L352.814 130.329Z" fill="url(#paint26_linear)"/>
<path d="M353.517 130.843L388.296 83.5335C388.456 83.3155 388.658 83.1313 388.89 82.9913C389.121 82.8514 389.378 82.7585 389.646 82.718C389.913 82.6775 390.186 82.6902 390.449 82.7553C390.711 82.8204 390.958 82.9367 391.176 83.0974L391.345 83.2208C391.563 83.3811 391.747 83.5828 391.887 83.8143C392.027 84.0459 392.12 84.3027 392.16 84.5702C392.201 84.8377 392.188 85.1106 392.123 85.3732C392.058 85.6358 391.941 85.883 391.781 86.1006L357.002 133.41L353.517 130.843Z" fill="#B0BEC5"/>
</g>
<defs>
<linearGradient id="paint0_linear" x1="351.917" y1="316.672" x2="351.917" y2="129.778" gradientUnits="userSpaceOnUse">
<stop stop-color="#808080" stop-opacity="0.25"/>
<stop offset="0.54" stop-color="#808080" stop-opacity="0.12"/>
<stop offset="1" stop-color="#808080" stop-opacity="0.1"/>
</linearGradient>
<linearGradient id="paint1_linear" x1="20000.9" y1="13299.9" x2="20000.9" y2="10710.2" gradientUnits="userSpaceOnUse">
<stop stop-color="#808080" stop-opacity="0.25"/>
<stop offset="0.54" stop-color="#808080" stop-opacity="0.12"/>
<stop offset="1" stop-color="#808080" stop-opacity="0.1"/>
</linearGradient>
<linearGradient id="paint2_linear" x1="20000.9" y1="18176.9" x2="20000.9" y2="15587.3" gradientUnits="userSpaceOnUse">
<stop stop-color="#808080" stop-opacity="0.25"/>
<stop offset="0.54" stop-color="#808080" stop-opacity="0.12"/>
<stop offset="1" stop-color="#808080" stop-opacity="0.1"/>
</linearGradient>
<linearGradient id="paint3_linear" x1="20000.9" y1="23021.2" x2="20000.9" y2="20431.5" gradientUnits="userSpaceOnUse">
<stop stop-color="#808080" stop-opacity="0.25"/>
<stop offset="0.54" stop-color="#808080" stop-opacity="0.12"/>
<stop offset="1" stop-color="#808080" stop-opacity="0.1"/>
</linearGradient>
<linearGradient id="paint4_linear" x1="41433.4" y1="2854.51" x2="41433.4" y2="2722.69" gradientUnits="userSpaceOnUse">
<stop stop-color="#808080" stop-opacity="0.25"/>
<stop offset="0.54" stop-color="#808080" stop-opacity="0.12"/>
<stop offset="1" stop-color="#808080" stop-opacity="0.1"/>
</linearGradient>
<linearGradient id="paint5_linear" x1="46421.9" y1="19672.8" x2="46421.9" y2="12671.6" gradientUnits="userSpaceOnUse">
<stop stop-color="#808080" stop-opacity="0.25"/>
<stop offset="0.54" stop-color="#808080" stop-opacity="0.12"/>
<stop offset="1" stop-color="#808080" stop-opacity="0.1"/>
</linearGradient>
<linearGradient id="paint6_linear" x1="13798.4" y1="4093.21" x2="13798.4" y2="3758.64" gradientUnits="userSpaceOnUse">
<stop stop-color="#808080" stop-opacity="0.25"/>
<stop offset="0.54" stop-color="#808080" stop-opacity="0.12"/>
<stop offset="1" stop-color="#808080" stop-opacity="0.1"/>
</linearGradient>
<linearGradient id="paint7_linear" x1="4078.22" y1="6380.48" x2="4078.22" y2="1561.12" gradientUnits="userSpaceOnUse">
<stop stop-color="#808080" stop-opacity="0.25"/>
<stop offset="0.54" stop-color="#808080" stop-opacity="0.12"/>
<stop offset="1" stop-color="#808080" stop-opacity="0.1"/>
</linearGradient>
<linearGradient id="paint8_linear" x1="22797.3" y1="56649.6" x2="22797.3" y2="24438.2" gradientUnits="userSpaceOnUse">
<stop stop-color="#808080" stop-opacity="0.25"/>
<stop offset="0.54" stop-color="#808080" stop-opacity="0.12"/>
<stop offset="1" stop-color="#808080" stop-opacity="0.1"/>
</linearGradient>
<linearGradient id="paint9_linear" x1="11308.7" y1="84585.8" x2="11308.7" y2="50114.2" gradientUnits="userSpaceOnUse">
<stop stop-color="#808080" stop-opacity="0.25"/>
<stop offset="0.54" stop-color="#808080" stop-opacity="0.12"/>
<stop offset="1" stop-color="#808080" stop-opacity="0.1"/>
</linearGradient>
<linearGradient id="paint10_linear" x1="20586.9" y1="18508.9" x2="20586.9" y2="17342.1" gradientUnits="userSpaceOnUse">
<stop stop-color="#808080" stop-opacity="0.25"/>
<stop offset="0.54" stop-color="#808080" stop-opacity="0.12"/>
<stop offset="1" stop-color="#808080" stop-opacity="0.1"/>
</linearGradient>
<linearGradient id="paint11_linear" x1="14326.5" y1="18508.9" x2="14326.5" y2="17342.1" gradientUnits="userSpaceOnUse">
<stop stop-color="#808080" stop-opacity="0.25"/>
<stop offset="0.54" stop-color="#808080" stop-opacity="0.12"/>
<stop offset="1" stop-color="#808080" stop-opacity="0.1"/>
</linearGradient>
<linearGradient id="paint12_linear" x1="12504.1" y1="8837.51" x2="12504.1" y2="4406.72" gradientUnits="userSpaceOnUse">
<stop stop-color="#808080" stop-opacity="0.25"/>
<stop offset="0.54" stop-color="#808080" stop-opacity="0.12"/>
<stop offset="1" stop-color="#808080" stop-opacity="0.1"/>
</linearGradient>
<linearGradient id="paint13_linear" x1="20526.3" y1="10546.8" x2="20526.3" y2="3680.11" gradientUnits="userSpaceOnUse">
<stop stop-color="#808080" stop-opacity="0.25"/>
<stop offset="0.54" stop-color="#808080" stop-opacity="0.12"/>
<stop offset="1" stop-color="#808080" stop-opacity="0.1"/>
</linearGradient>
<linearGradient id="paint14_linear" x1="8367.95" y1="1045.83" x2="8367.95" y2="826.323" gradientUnits="userSpaceOnUse">
<stop stop-color="#808080" stop-opacity="0.25"/>
<stop offset="0.54" stop-color="#808080" stop-opacity="0.12"/>
<stop offset="1" stop-color="#808080" stop-opacity="0.1"/>
</linearGradient>
<linearGradient id="paint15_linear" x1="18003.3" y1="10547.1" x2="18003.3" y2="3680.22" gradientUnits="userSpaceOnUse">
<stop stop-color="#808080" stop-opacity="0.25"/>
<stop offset="0.54" stop-color="#808080" stop-opacity="0.12"/>
<stop offset="1" stop-color="#808080" stop-opacity="0.1"/>
</linearGradient>
<linearGradient id="paint16_linear" x1="9681.56" y1="56653.7" x2="9681.56" y2="24440" gradientUnits="userSpaceOnUse">
<stop stop-color="#808080" stop-opacity="0.25"/>
<stop offset="0.54" stop-color="#808080" stop-opacity="0.12"/>
<stop offset="1" stop-color="#808080" stop-opacity="0.1"/>
</linearGradient>
<linearGradient id="paint17_linear" x1="43495.5" y1="20663" x2="43495.5" y2="13663.4" gradientUnits="userSpaceOnUse">
<stop stop-color="#808080" stop-opacity="0.25"/>
<stop offset="0.54" stop-color="#808080" stop-opacity="0.12"/>
<stop offset="1" stop-color="#808080" stop-opacity="0.1"/>
</linearGradient>
<linearGradient id="paint18_linear" x1="13127.5" y1="4316.28" x2="13127.5" y2="3981.83" gradientUnits="userSpaceOnUse">
<stop stop-color="#808080" stop-opacity="0.25"/>
<stop offset="0.54" stop-color="#808080" stop-opacity="0.12"/>
<stop offset="1" stop-color="#808080" stop-opacity="0.1"/>
</linearGradient>
<linearGradient id="paint19_linear" x1="1861.14" y1="3226.94" x2="1861.14" y2="2341.99" gradientUnits="userSpaceOnUse">
<stop stop-color="#808080" stop-opacity="0.25"/>
<stop offset="0.54" stop-color="#808080" stop-opacity="0.12"/>
<stop offset="1" stop-color="#808080" stop-opacity="0.1"/>
</linearGradient>
<linearGradient id="paint20_linear" x1="2108.97" y1="65579" x2="2108.97" y2="44902.1" gradientUnits="userSpaceOnUse">
<stop stop-color="#808080" stop-opacity="0.25"/>
<stop offset="0.54" stop-color="#808080" stop-opacity="0.12"/>
<stop offset="1" stop-color="#808080" stop-opacity="0.1"/>
</linearGradient>
<linearGradient id="paint21_linear" x1="6876.93" y1="84585.8" x2="6876.93" y2="50114.2" gradientUnits="userSpaceOnUse">
<stop stop-color="#808080" stop-opacity="0.25"/>
<stop offset="0.54" stop-color="#808080" stop-opacity="0.12"/>
<stop offset="1" stop-color="#808080" stop-opacity="0.1"/>
</linearGradient>
<linearGradient id="paint22_linear" x1="11405.5" y1="18508.8" x2="11405.5" y2="17342.1" gradientUnits="userSpaceOnUse">
<stop stop-color="#808080" stop-opacity="0.25"/>
<stop offset="0.54" stop-color="#808080" stop-opacity="0.12"/>
<stop offset="1" stop-color="#808080" stop-opacity="0.1"/>
</linearGradient>
<linearGradient id="paint23_linear" x1="8191.41" y1="18508.8" x2="8191.41" y2="17342.1" gradientUnits="userSpaceOnUse">
<stop stop-color="#808080" stop-opacity="0.25"/>
<stop offset="0.54" stop-color="#808080" stop-opacity="0.12"/>
<stop offset="1" stop-color="#808080" stop-opacity="0.1"/>
</linearGradient>
<linearGradient id="paint24_linear" x1="9801.82" y1="1273.86" x2="9801.82" y2="1229.71" gradientUnits="userSpaceOnUse">
<stop stop-color="#808080" stop-opacity="0.25"/>
<stop offset="0.54" stop-color="#808080" stop-opacity="0.12"/>
<stop offset="1" stop-color="#808080" stop-opacity="0.1"/>
</linearGradient>
<linearGradient id="paint25_linear" x1="2808.66" y1="9346.55" x2="2808.66" y2="6114.24" gradientUnits="userSpaceOnUse">
<stop stop-color="#808080" stop-opacity="0.25"/>
<stop offset="0.54" stop-color="#808080" stop-opacity="0.12"/>
<stop offset="1" stop-color="#808080" stop-opacity="0.1"/>
</linearGradient>
<linearGradient id="paint26_linear" x1="32121.4" y1="19187.1" x2="32121.4" y2="12463.8" gradientUnits="userSpaceOnUse">
<stop stop-color="#808080" stop-opacity="0.25"/>
<stop offset="0.54" stop-color="#808080" stop-opacity="0.12"/>
<stop offset="1" stop-color="#808080" stop-opacity="0.1"/>
</linearGradient>
<clipPath id="clip0">
<rect width="272.822" height="313.479" fill="white" transform="translate(162.821 12.9348)"/>
</clipPath>
</defs>
</svg>
