<svg width="577" height="307" viewBox="0 0 577 307" fill="none" xmlns="http://www.w3.org/2000/svg">
<g clip-path="url(#clip0)">
<path d="M532.76 242.76C532.117 244.145 531.477 245.512 530.838 246.86C529.84 248.954 528.856 251.007 527.884 253.02C527.452 253.912 527.02 254.787 526.599 255.662C521.833 265.396 517.384 274.005 513.605 281.085C510.176 287.5 505.084 292.875 498.864 296.647C492.643 300.419 485.522 302.448 478.247 302.524L394.218 303.438H393.331L386.128 303.515L379.966 303.582L361.071 303.787H360.306L350.687 303.892H350.393L291.104 304.535L238.182 305.089L232.026 305.155L193.792 305.571H193.748L168.952 305.837H168.686L90.2802 306.684L66.825 306.939C64.8278 306.962 62.8311 306.862 60.8462 306.64C60.1702 306.562 59.4942 306.474 58.8237 306.368C47.8846 304.68 37.8543 299.296 30.4037 291.112C20.3135 280.016 12.9716 267.069 8.04005 253.02C7.3271 250.992 6.66218 248.939 6.04528 246.86C-11.0267 189.163 9.78549 114.724 47.2429 64.91C48.8129 62.827 50.4087 60.7957 52.0304 58.8162L52.0692 58.7719C63.589 44.6342 76.5052 32.8234 90.2636 24.425C114.644 9.51735 141.657 5.31817 168.226 17.8326C190.706 28.4247 211.696 33.405 232.042 34.7568C234.098 34.8897 236.154 34.9894 238.198 35.0504C284.871 36.5184 328.612 19.7051 379.977 8.85257C382.022 8.42047 384.072 7.9939 386.139 7.5895C422.782 0.299097 463.431 -3.54553 511.771 4.53706C516.793 5.35732 521.749 6.54228 526.599 8.08254C528.73 8.76948 530.784 9.50812 532.76 10.2985C555.833 19.6829 568.417 37.0225 573.764 58.7497C574.27 60.7662 574.708 62.8178 575.077 64.9044C584.558 117.167 556.792 191.301 532.76 242.76Z" fill="#24474F"/>
<path opacity="0.1" d="M275.401 246.86C275.178 248.932 274.832 250.989 274.365 253.02H326.284V246.86H275.401ZM232.042 281.655L238.198 281.606V266.388C236.087 266.294 234.032 266.199 232.042 266.1V281.655ZM102.98 246.86V253.02H212.97V246.86H102.98ZM573.792 58.772H532.788V10.3041C530.812 9.5027 528.758 8.76405 526.626 8.0882V58.772H386.139V7.573C384.072 7.9774 382.022 8.40397 379.977 8.83608V58.772H238.198V35.0339C236.154 34.9729 234.098 34.8732 232.042 34.7403V58.772H90.2636V24.4251C76.5052 32.8235 63.589 44.6344 52.0692 58.772H52.0304V58.8163C50.405 60.8106 48.8092 62.8419 47.2429 64.9101H52.0304V246.86H6.03974C6.65295 248.939 7.31787 250.993 8.03451 253.02H52.0249V304.884C54.2382 305.561 56.4974 306.077 58.7849 306.429C59.4554 306.535 60.1314 306.623 60.8074 306.701C62.7923 306.923 64.789 307.023 66.7862 307L90.2414 306.745V253.009H232.042V305.2L238.198 305.133V253.02H379.977V303.632L386.139 303.565V253.02H526.599V255.663C527.02 254.787 527.452 253.912 527.884 253.02C528.856 251.007 529.84 248.954 530.838 246.86C531.477 245.516 532.118 244.149 532.76 242.76V64.9323H575.105C574.732 62.8308 574.294 60.7774 573.792 58.772ZM90.2636 246.86V64.9101H232.042V246.86H90.2636ZM238.21 246.86V64.9101H379.977V246.86H238.21ZM526.61 246.86H386.139V64.9101H526.599L526.61 246.86Z" fill="#50ACC1"/>
<path d="M478.242 295.632V302.834L394.062 303.61L393.165 303.626L361.171 303.92L360.406 303.931L350.682 304.014H350.393L291.115 304.562L193.809 305.465H193.726L168.985 305.698L168.719 305.704L58.7849 306.712V298.402L84.6339 282.891L136.498 282.459L137.606 282.453L137.972 282.447L139.08 282.431L163.982 282.226L165.095 282.22L165.45 282.215L166.558 282.209L174.543 282.143L174.753 282.137L194.452 281.971H194.613L348.321 280.675L352.083 280.647H352.46L355.331 280.619L376.193 280.448L377.301 280.431L378.326 280.42H378.858L385.346 280.37L386.632 280.353L388.355 280.342L393.758 280.292L402.33 280.22L403.438 280.209L405.366 280.198H405.726L447.123 279.844L478.242 295.632Z" fill="#65617D"/>
<path opacity="0.2" d="M478.242 295.632V302.834L394.062 303.61L393.165 303.626L361.171 303.92L360.406 303.931L350.682 304.014H350.393L291.115 304.562L193.809 305.465H193.726L168.985 305.698L168.719 305.704L58.7849 306.712V298.402L84.6339 282.891L136.498 282.459L137.606 282.453L137.972 282.447L139.08 282.431L163.982 282.226L165.095 282.22L165.45 282.215L166.558 282.209L174.543 282.143L174.753 282.137L194.452 281.971H194.613L348.321 280.675L352.083 280.647H352.46L355.331 280.619L376.193 280.448L377.301 280.431L378.326 280.42H378.858L385.346 280.37L386.632 280.353L388.355 280.342L393.758 280.292L402.33 280.22L403.438 280.209L405.366 280.198H405.726L447.123 279.844L478.242 295.632Z" fill="black"/>
<path d="M164.07 267.939V281.506C164.071 282.148 163.889 282.778 163.545 283.321C163.202 283.864 162.712 284.299 162.131 284.575C161.699 284.784 161.226 284.898 160.746 284.907L141.407 285.317C140.891 285.33 140.379 285.221 139.911 285.001C139.321 284.731 138.82 284.296 138.469 283.749C138.119 283.202 137.933 282.565 137.933 281.916V267.939H164.07Z" fill="#3F3D56"/>
<path opacity="0.1" d="M164.07 267.939V281.506C164.071 282.148 163.889 282.778 163.545 283.321C163.202 283.864 162.712 284.299 162.131 284.575C161.699 284.784 161.226 284.898 160.746 284.907L141.407 285.317C140.891 285.33 140.379 285.221 139.911 285.001C139.321 284.731 138.82 284.296 138.469 283.749C138.119 283.202 137.933 282.565 137.933 281.916V267.939H164.07Z" fill="black"/>
<path d="M165.179 267.939V281.506C165.179 282.148 164.997 282.778 164.653 283.321C164.31 283.864 163.82 284.299 163.239 284.575C162.807 284.784 162.334 284.898 161.854 284.907L142.516 285.317C141.999 285.33 141.487 285.221 141.02 285.001C140.429 284.731 139.928 284.296 139.578 283.749C139.227 283.202 139.041 282.565 139.041 281.916V267.939H165.179Z" fill="#3F3D56"/>
<path d="M403.438 267.933H377.301V285.384H403.438V267.933Z" fill="#3F3D56"/>
<path opacity="0.1" d="M403.438 267.933H377.301V285.384H403.438V267.933Z" fill="black"/>
<path d="M402.33 267.933H376.193V285.384H402.33V267.933Z" fill="#3F3D56"/>
<path opacity="0.1" d="M165.173 267.933V270.686L139.036 271.384V267.933H165.173Z" fill="black"/>
<path d="M211.308 173.042V266.221C211.301 266.79 211.076 267.335 210.679 267.742C210.282 268.149 209.743 268.388 209.174 268.41L102.98 271.235H102.953C102.374 271.228 101.822 270.995 101.413 270.586C101.004 270.177 100.771 269.625 100.764 269.047V173.042C100.771 172.464 101.004 171.911 101.413 171.502C101.822 171.094 102.374 170.861 102.953 170.854H209.119C209.697 170.861 210.25 171.094 210.659 171.502C211.068 171.911 211.301 172.464 211.308 173.042V173.042Z" fill="#65617D"/>
<path opacity="0.1" d="M102.98 170.854V271.235H102.953C102.374 271.228 101.822 270.995 101.413 270.586C101.004 270.177 100.771 269.625 100.764 269.047V173.042C100.771 172.464 101.004 171.911 101.413 171.502C101.822 171.094 102.374 170.861 102.953 170.854H102.98Z" fill="black"/>
<path d="M107.823 176.803H206.177V258.931L107.823 261.147V176.803Z" fill="#040E10"/>
<path opacity="0.1" d="M402.33 267.933V271.484L376.193 270.786V267.933H402.33Z" fill="black"/>
<path d="M436.828 173.042V269.047C436.821 269.63 436.584 270.186 436.169 270.596C435.754 271.005 435.195 271.235 434.612 271.235V271.235L328.395 268.41C327.827 268.388 327.288 268.149 326.891 267.742C326.494 267.335 326.269 266.79 326.262 266.221V173.042C326.269 172.464 326.502 171.911 326.911 171.502C327.32 171.094 327.873 170.861 328.451 170.854H434.617C435.199 170.855 435.758 171.085 436.171 171.495C436.585 171.904 436.821 172.46 436.828 173.042V173.042Z" fill="#65617D"/>
<path opacity="0.1" d="M436.828 173.042V269.047C436.821 269.63 436.584 270.186 436.169 270.596C435.754 271.005 435.195 271.235 434.612 271.235V271.235V170.854C435.195 170.853 435.754 171.083 436.169 171.493C436.584 171.902 436.821 172.459 436.828 173.042Z" fill="black"/>
<path d="M429.758 176.803H331.404V258.931L429.758 261.147V176.803Z" fill="#040E10"/>
<path d="M323.514 173.042V266.221C323.507 266.79 323.282 267.335 322.885 267.742C322.488 268.149 321.949 268.388 321.381 268.41L215.186 271.235C214.603 271.235 214.044 271.005 213.629 270.596C213.214 270.186 212.977 269.63 212.97 269.047V173.042C212.977 172.464 213.21 171.911 213.619 171.502C214.028 171.094 214.581 170.861 215.159 170.854H321.325C321.903 170.861 322.456 171.094 322.865 171.502C323.274 171.911 323.507 172.464 323.514 173.042V173.042Z" fill="#65617D"/>
<path d="M220.029 176.803H318.383V258.931L220.029 261.147V176.803Z" fill="#040E10"/>
<path opacity="0.1" d="M478.242 295.632V302.834L394.062 303.61L393.165 303.626L361.171 303.92L360.406 303.931L350.682 304.014H350.393L291.115 304.563L193.809 305.466H193.726L168.985 305.698L168.719 305.704L58.7849 306.712V298.402L170.997 297.665H171.263L193.975 297.51H194.081L350.936 296.474H351.097L351.191 296.469H351.452L354.106 296.452H354.915L396.19 296.175L398.628 296.164L399.171 296.159L478.242 295.632Z" fill="black"/>
<path d="M280.466 194.526H225.277C225.204 194.526 225.133 194.496 225.081 194.445C225.029 194.393 225 194.322 225 194.249C225 194.175 225.029 194.105 225.081 194.053C225.133 194.001 225.204 193.972 225.277 193.972H280.466C280.539 193.972 280.61 194.001 280.662 194.053C280.714 194.105 280.743 194.175 280.743 194.249C280.743 194.322 280.714 194.393 280.662 194.445C280.61 194.496 280.539 194.526 280.466 194.526Z" fill="#00A911"/>
<path d="M269.993 193.605C285.701 193.605 298.435 180.874 298.435 165.17C298.435 149.465 285.701 136.734 269.993 136.734C254.285 136.734 241.551 149.465 241.551 165.17C241.551 180.874 254.285 193.605 269.993 193.605Z" fill="#FBBEBE"/>
<path d="M298.441 208.94C298.441 208.94 243.307 215.587 248.571 208.94C250.477 206.535 251.004 199.411 250.899 191.295C250.865 188.83 250.777 186.276 250.649 183.733C250.04 171.546 248.571 159.635 248.571 159.635C248.571 159.635 296.778 136.922 291.237 154.926C289.021 162.2 289.747 172.416 291.431 182.005C291.924 184.803 292.495 187.545 293.094 190.149C294.554 196.499 296.339 202.771 298.441 208.94V208.94Z" fill="#FBBEBE"/>
<path d="M280.449 206.685C286.827 205.505 293.581 203.361 299.582 205.832C301.161 206.48 302.613 207.427 304.231 207.97C305.849 208.513 307.622 208.646 309.307 209.028C315.224 210.369 320.023 214.873 323.104 220.108C326.185 225.343 327.78 231.265 329.343 237.126L333.166 251.436C336.491 263.873 339.816 276.415 340.586 289.273C294.3 291.921 247.908 292.186 201.594 290.065C204.609 284.337 207.689 278.259 207.435 271.783C207.18 265.307 203.451 258.92 204.797 252.538C205.656 248.472 208.437 245.12 210.139 241.337C214.987 230.523 211.214 215.97 219.736 207.738C223.57 204.037 229.155 202.635 234.491 202.813C241.296 203.04 248.261 205.162 254.993 206.197C263.615 207.505 271.76 208.28 280.449 206.685Z" fill="#50ACC1"/>
<path opacity="0.1" d="M352.981 268.271L352.926 269.063V269.119L352.832 270.393L352.095 280.647L351.202 293.001L350.948 296.48L350.394 303.926V304.02L291.104 304.574L193.809 305.626V306.092H193.732V305.626V305.471L193.981 297.516L194.457 281.971L194.867 268.792L194.906 267.479C194.93 266.687 195.116 265.907 195.452 265.189C195.787 264.471 196.266 263.828 196.858 263.301C197.45 262.774 198.144 262.373 198.896 262.122C199.648 261.872 200.444 261.778 201.234 261.845C203.849 262.067 207.246 262.338 211.308 262.626L212.97 262.748C236.425 264.377 279.773 266.482 323.514 263.856C324.434 263.806 325.359 263.751 326.284 263.684C333.067 263.258 339.843 262.709 346.554 262.022C347.402 261.934 348.259 262.032 349.066 262.31C349.872 262.588 350.607 263.04 351.22 263.633C351.833 264.226 352.308 264.946 352.612 265.743C352.917 266.539 353.043 267.393 352.981 268.244V268.271Z" fill="black"/>
<path d="M193.792 306.092V305.626L291.104 304.568L350.393 304.014H350.56V303.92L351.114 296.474L351.352 293.151L352.261 280.625L352.976 270.709V270.465C353.009 270.008 352.988 269.549 352.915 269.097C352.918 269.078 352.918 269.06 352.915 269.041C352.762 268.106 352.382 267.223 351.806 266.471C351.196 265.689 350.397 265.075 349.484 264.687C348.57 264.299 347.573 264.151 346.587 264.255C339.877 264.942 333.1 265.49 326.318 265.917C325.392 265.983 324.467 266.039 323.547 266.089C279.806 268.687 236.459 266.582 213.003 264.981L211.341 264.859C207.279 264.571 203.883 264.305 201.267 264.078C199.829 263.956 198.396 264.372 197.246 265.245C196.096 266.117 195.309 267.385 195.039 268.803C194.983 269.103 194.95 269.407 194.939 269.712L194.563 281.988L194.047 297.538L193.804 305.493V305.648V306.114L193.792 306.092Z" fill="#3F3D56"/>
<path opacity="0.1" d="M353.147 272.155L352.466 280.647L351.452 293.306L351.197 296.474L350.643 303.571L350.61 303.925V304.02L350.526 304.84L350.587 304.02H350.427L291.138 304.574L193.809 305.626V305.471L194.081 297.516L194.635 281.971L194.989 271.639C195.007 271.052 195.171 270.478 195.467 269.97C195.763 269.462 196.182 269.036 196.685 268.731C197.312 268.347 198.046 268.172 198.779 268.232C199.943 268.327 201.373 268.437 203.04 268.559C205.75 268.759 209.091 268.991 212.981 269.235C220.184 269.689 229.222 270.177 239.578 270.576C268.392 271.684 307.29 272.055 344.237 268.82C345.9 268.676 347.617 268.515 349.296 268.354C349.961 268.288 350.631 268.415 351.225 268.72C351.393 268.804 351.553 268.904 351.701 269.019C352.184 269.369 352.566 269.838 352.809 270.382C352.866 270.49 352.912 270.603 352.948 270.72C353.114 271.179 353.182 271.668 353.147 272.155V272.155Z" fill="black"/>
<path opacity="0.1" d="M165.179 279.739V281.506C165.179 282.148 164.997 282.778 164.653 283.321C164.31 283.864 163.82 284.299 163.239 284.575L141.02 285.001C140.429 284.731 139.928 284.296 139.578 283.749C139.227 283.202 139.041 282.565 139.041 281.916V280.254L165.179 279.739Z" fill="black"/>
<path d="M165.45 285.616L136.498 286.17V281.367L165.45 280.813V285.616Z" fill="#3F3D56"/>
<path opacity="0.1" d="M165.45 285.616L136.498 286.17V281.367L165.45 280.813V285.616Z" fill="black"/>
<path d="M166.558 285.616L137.606 286.17V281.367L166.558 280.813V285.616Z" fill="#3F3D56"/>
<path d="M280.466 184.554H225.277C225.204 184.554 225.133 184.525 225.081 184.473C225.029 184.421 225 184.35 225 184.277C225 184.204 225.029 184.133 225.081 184.081C225.133 184.029 225.204 184 225.277 184H280.466C280.539 184 280.61 184.029 280.662 184.081C280.714 184.133 280.743 184.204 280.743 184.277C280.743 184.35 280.714 184.421 280.662 184.473C280.61 184.525 280.539 184.554 280.466 184.554Z" fill="#00A911"/>
<path opacity="0.1" d="M376.359 280.846V282.614C376.358 283.256 376.541 283.886 376.884 284.429C377.227 284.972 377.718 285.407 378.298 285.683L400.518 286.109C401.109 285.839 401.609 285.404 401.96 284.857C402.311 284.31 402.497 283.673 402.496 283.024V281.362L376.359 280.846Z" fill="black"/>
<path opacity="0.1" d="M376.082 286.724L405.034 287.278V282.475L376.082 281.921V286.724Z" fill="black"/>
<path d="M280.466 189.54H225.277C225.204 189.54 225.133 189.511 225.081 189.459C225.029 189.407 225 189.336 225 189.263C225 189.189 225.029 189.119 225.081 189.067C225.133 189.015 225.204 188.986 225.277 188.986H280.466C280.539 188.986 280.61 189.015 280.662 189.067C280.714 189.119 280.743 189.189 280.743 189.263C280.743 189.336 280.714 189.407 280.662 189.459C280.61 189.511 280.539 189.54 280.466 189.54Z" fill="#00A911"/>
<path d="M374.974 286.724L403.925 287.278V282.475L374.974 281.921V286.724Z" fill="#3F3D56"/>
<path d="M252.001 173.884C252.045 177.762 250.25 181.418 248.726 185.002C243.178 198.058 240.776 212.235 241.711 226.39C242.116 232.484 243.141 238.578 242.116 244.616C241.091 250.654 237.445 256.676 231.588 258.41C241.301 264.199 254.45 263.59 263.593 256.937C268.464 253.391 272.093 248.444 275.645 243.58C275.223 252.318 272.693 260.823 268.27 268.371C276.264 267.663 284.021 265.284 291.038 261.389C298.055 257.493 304.175 252.168 309.002 245.757C311.39 242.539 313.468 239.004 314.388 235.104C316.1 227.902 313.712 220.418 311.889 213.222C310.365 207.206 309.224 201.1 308.47 194.94C308.232 192.968 308.038 190.941 308.525 189.013C309.079 186.758 310.559 184.852 311.651 182.797C314.754 176.958 314.826 169.889 313.235 163.474C311.645 157.059 308.531 151.143 305.445 145.298C302.973 140.612 300.291 135.709 295.77 132.955C292.944 131.238 289.675 130.524 286.417 129.831L272.359 126.823C269.284 126.164 266.12 125.504 263.011 125.986C257.764 126.806 254.068 130.596 250.821 134.484C248.278 137.509 242.061 143.188 241.623 147.148C241.224 150.799 244.449 156.915 244.997 160.765C245.718 165.751 246.227 164.089 249.042 167.147C250.821 169.042 251.968 171.23 252.001 173.884Z" fill="#3F3D56"/>
<path d="M166.375 184.803H111.187C111.113 184.803 111.043 184.774 110.991 184.722C110.939 184.67 110.91 184.599 110.91 184.526C110.91 184.452 110.939 184.382 110.991 184.33C111.043 184.278 111.113 184.249 111.187 184.249H166.375C166.449 184.249 166.519 184.278 166.571 184.33C166.623 184.382 166.652 184.452 166.652 184.526C166.652 184.599 166.623 184.67 166.571 184.722C166.519 184.774 166.449 184.803 166.375 184.803Z" fill="#00A911"/>
<path d="M166.466 201.554H111.277C111.204 201.554 111.133 201.525 111.081 201.473C111.029 201.421 111 201.35 111 201.277C111 201.204 111.029 201.133 111.081 201.081C111.133 201.029 111.204 201 111.277 201H166.466C166.539 201 166.61 201.029 166.662 201.081C166.714 201.133 166.743 201.204 166.743 201.277C166.743 201.35 166.714 201.421 166.662 201.473C166.61 201.525 166.539 201.554 166.466 201.554Z" fill="#00A911"/>
<path d="M166.375 189.789H111.187C111.113 189.789 111.043 189.759 110.991 189.707C110.939 189.656 110.91 189.585 110.91 189.512C110.91 189.438 110.939 189.368 110.991 189.316C111.043 189.264 111.113 189.235 111.187 189.235H166.375C166.449 189.235 166.519 189.264 166.571 189.316C166.623 189.368 166.652 189.438 166.652 189.512C166.652 189.585 166.623 189.656 166.571 189.707C166.519 189.759 166.449 189.789 166.375 189.789Z" fill="#00A911"/>
<path d="M166.466 206.54H111.277C111.204 206.54 111.133 206.511 111.081 206.459C111.029 206.407 111 206.336 111 206.263C111 206.189 111.029 206.119 111.081 206.067C111.133 206.015 111.204 205.986 111.277 205.986H166.466C166.539 205.986 166.61 206.015 166.662 206.067C166.714 206.119 166.743 206.189 166.743 206.263C166.743 206.336 166.714 206.407 166.662 206.459C166.61 206.511 166.539 206.54 166.466 206.54Z" fill="#00A911"/>
<path d="M166.375 194.774H111.187C111.113 194.774 111.043 194.745 110.991 194.693C110.939 194.641 110.91 194.571 110.91 194.497C110.91 194.424 110.939 194.354 110.991 194.302C111.043 194.25 111.113 194.22 111.187 194.22H166.375C166.449 194.22 166.519 194.25 166.571 194.302C166.623 194.354 166.652 194.424 166.652 194.497C166.652 194.571 166.623 194.641 166.571 194.693C166.519 194.745 166.449 194.774 166.375 194.774Z" fill="#00A911"/>
<path d="M166.466 211.526H111.277C111.204 211.526 111.133 211.496 111.081 211.445C111.029 211.393 111 211.322 111 211.249C111 211.175 111.029 211.105 111.081 211.053C111.133 211.001 111.204 210.972 111.277 210.972H166.466C166.539 210.972 166.61 211.001 166.662 211.053C166.714 211.105 166.743 211.175 166.743 211.249C166.743 211.322 166.714 211.393 166.662 211.445C166.61 211.496 166.539 211.526 166.466 211.526Z" fill="#00A911"/>
</g>
<defs>
<clipPath id="clip0">
<rect width="577" height="307" fill="white"/>
</clipPath>
</defs>
</svg>
